<?xml version="1.0" standalone="no"?>
<!DOCTYPE svg PUBLIC "-//W3C//DTD SVG 1.1//EN" "http://www.w3.org/Graphics/SVG/1.1/DTD/svg11.dtd">
<svg xmlns="http://www.w3.org/2000/svg">
<metadata>Copyright (C) 2019 by original authors @ fontello.com</metadata>
<defs>
<font id="arenafont-xstore" horiz-adv-x="1000" >
<font-face font-family="arenafont-xstore" font-weight="400" font-stretch="normal" units-per-em="1000" ascent="850" descent="-150" />
<missing-glyph horiz-adv-x="1000" />
<glyph glyph-name="uE1000" unicode="&#xe800;" d="M702 343q49 41 75 98t27 120q0 59-23 110-22 53-61 92t-90 61-111 22q-59 0-111-22t-91-61-61-92q-23-51-23-110 0-63 27-120t75-98q-63-27-116-74-52-48-89-108t-58-133-20-149q0-11 8-20t20-8h878q12 0 20 8t8 20q-1 76-21 149t-58 133-90 108q-51 47-115 74v0z m-184 447q47 0 89-18 42-18 74-49t49-73q18-42 18-90 0-62-31-115t-84-84l-2-1v0h-1q-1-1-3-2t-3-2h-1q-24-13-51-19t-55-6q-47 0-89 17-42 19-73 49t-50 73q-18 42-18 90t19 90 50 73 73 49q42 18 89 18z m-126-484q30-15 62-22t64-8q33 0 65 8t61 22q59-18 109-57 51-38 88-90t60-118q23-63 27-133h-820q4 69 27 133 23 64 60 117t88 91q50 39 109 57v0z" horiz-adv-x="1000" />

<glyph glyph-name="uE930D" unicode="&#xe801;" d="M994 466q-6 16-17 26t-29 13l-275 40-122 250q-7 15-21 23t-30 9-30-9-21-23l-123-250-275-40q-16-3-28-13t-18-26-1-31 16-29l198-193-47-273q-2-13 1-25t12-22q12-15 32-19t37 5l247 131 247-130q6-3 13-4t13-2q13 0 24 5t19 15q8 10 12 22t1 25l-47 274 199 193q11 11 15 27t-2 31z" horiz-adv-x="1000" />

<glyph glyph-name="uni0E10" unicode="&#xe802;" d="M562 506v125q0 27 18 44t44 18h62v157h-124q-78 0-132-55t-55-133v-156h-125v-156h125v-500h189v500h125l61 156h-188v0z" horiz-adv-x="1000" />

<glyph glyph-name="uni0E11" unicode="&#xe803;" d="M412 380q16 7 28 16t19 19q15 16 22 38t6 50q0 27-6 50t-22 43q-23 31-63 48t-96 17h-298v-607h278q24 0 45 2t42 6q21 5 38 12t31 18q13 10 24 22t21 26q12 21 19 45t7 52-6 49-18 40q-12 19-30 32t-41 22v0z m-287 176h134q21 0 40-2t33-7q17-7 25-21t8-35q0-19-6-32t-19-21-29-11-36-4h-150v133 0z m212-386q-11-5-26-8t-36-3h-150v162h151q20 0 36-3t26-7q19-9 29-25t10-39q0-29-10-48t-30-29z m301 463h264v-76h-264v76z m356-298q-4 27-13 50t-23 43q-16 23-35 39t-44 27q-23 10-50 16t-56 5q-51 0-92-16t-72-46q-32-31-47-76t-16-103q0-63 17-108t52-72q34-28 75-41t85-13q55 0 98 16t73 48q20 20 31 41t13 40h-120q-5-10-11-18t-14-13q-13-10-30-15t-36-6-35 5-31 12q-23 14-35 37t-13 58h331q1 29 1 52t-3 38v0z m-325-12q3 22 11 39t21 30 30 20 42 6q20 0 38-6t32-18q14-12 22-30t10-41h-206z" horiz-adv-x="1000" />

<glyph glyph-name="uni0E12" unicode="&#xe804;" d="M907 344q-8 33-33 56t-58 27q-40 4-79 7-40 2-79 3t-79 2h-79-79q-39 0-79-2t-79-3q-39-3-79-7-33-4-58-27t-33-56q-11-48-13-99t-2-101 2-101 13-99q8-34 33-56t58-27q40-4 79-6 39-3 78-4t80-1h79 79q39 0 79 1t79 4q39 3 79 7 33 4 58 27t33 56q11 48 13 99t2 101q0 49-2 100t-13 99v0z m-588-50h-61v-324h-57v324h-60v53h178v-53z m154-324h-51v30q-15-17-29-26t-29-9q-12 0-21 6t-12 15q-2 7-3 17t-1 25v223h51v-207-14-6q1-6 4-9t8-3q8 0 16 6t16 18v215h51v-281 0z m194 84q0-19-1-34t-4-23q-5-16-15-24t-26-8q-14 0-27 8t-26 23v-26h-51v377h51v-123q12 15 25 23t28 8 26-8 15-24q2-8 4-22t1-35v-112 0z m192 47h-102v-50q0-19 7-29t19-10q10 0 15 5t8 15q0 3 0 11t1 24h52v-7q0-12 0-20t-1-13q-2-8-4-16t-8-15q-10-15-26-23t-36-8-35 8-27 21q-8 10-12 27t-4 39v99q0 22 4 39t12 27q11 15 27 22t34 7 34-7 26-22q9-11 13-27t3-39v-58 0z m-76 108q-12 0-19-9t-7-30v-26h51v26q0 20-6 30t-19 9z m-190 0q-6 0-12-3t-13-9v-172q7-7 13-10t12-3q12 0 17 10t5 28v120q1 20-5 30t-17 9v0z m29 255q15 0 29 9t30 26v-31h52v285h-52v-217q-8-12-16-18t-17-6q-5 0-8 3t-4 9q-1 2-1 6v14 209h-51v-225q0-15 1-26t4-16q4-11 12-16t21-6v0z m-359 159v-155h57v155l69 227h-58l-39-150-40 150h-60q9-26 18-53t19-53q13-40 22-71t12-50v0z m203-159q19 0 35 8t25 21q8 10 12 27t4 40v100q0 22-4 39t-12 28q-10 15-25 22t-35 7-35-7-25-22q-8-11-12-28t-4-39v-100q0-22 4-40t12-27q10-14 25-21t35-8z m-25 206q0 20 6 30t19 9 19-9 6-30v-120q0-19-6-29t-19-10-19 10-6 29v120z" horiz-adv-x="1000" />

<glyph glyph-name="uni0E13" unicode="&#xe805;" d="M245 658q-18-41-16-107t5-117q-20-12-43 0t-37 11q-15 0-30-9t-18-24q-2-10 6-25t44-28q14-5 38-13t32-25q5-12-7-42t-40-64-67-61-89-36q-7-1-13-7t-4-14q2-30 52-44t80-18q3-4 6-19t7-28q1-6 7-12t17-5q15 0 42 7t71-1q43-8 90-49t126-42q73 0 121 42t89 49q24 4 46 3t45-5q15-3 29-2t17 16q4 13 7 28t6 18q30 5 80 18t52 44q1 8-4 14t-13 7q-48 7-88 36t-68 61-40 64-7 42q7 17 32 25t38 13q25 10 38 22t13 26q0 18-18 28t-34 11-38-11-40-1q3 53 5 118t-16 106q-18 40-46 69-27 29-61 49t-72 30q-39 10-78 10t-76-10q-38-10-71-29t-62-50q-27-29-45-69v0z" horiz-adv-x="1000" />

<glyph glyph-name="uni0E14" unicode="&#xe806;" d="M689 850h-377q-65 0-122-24t-99-67-67-99-24-121v-375q0-66 24-123 25-57 67-100t99-67 122-24h375q65 0 122 24 57 25 100 67t67 99 24 122v377q0 64-24 121t-67 99-99 67-121 24z m217-688q0-45-17-85-17-40-47-70t-69-47q-41-17-86-17h-375q-45 0-85 17-40 17-70 47t-47 70q-17 40-17 85v377q0 44 17 84 17 41 47 70t70 47q40 17 85 17h375q45 0 86-17 40-17 69-47t47-70q17-40 17-84v-377z m-406 438q-52 0-98-19-45-20-79-54t-53-79q-20-46-20-98t20-98q19-45 53-79t79-53q46-20 98-20t98 20q45 19 79 53t54 79q19 46 19 98t-19 98q-20 45-54 79t-79 54q-46 19-98 19z m0-406q-64 0-110 46t-46 110 46 110 110 46 110-46 46-110-46-110-110-46z m302 425q0-14-10-23t-23-10-23 10-10 23 10 23 23 10 23-10 10-23z" horiz-adv-x="1000" />

<glyph glyph-name="uni0E15" unicode="&#xe807;" d="M500 446v-198h280q-15-43-44-80-27-36-64-62t-80-41-92-15q-61 0-116 24t-95 63-63 95-24 116 24 116q23 54 63 94t95 63q55 23 116 23 53 0 103-19t89-53l130 149q-33 29-71 52-37 22-78 38t-85 23q-43 8-88 8-102 0-192-39-91-39-159-106t-106-157q-39-91-39-194t39-193q39-90 106-158t159-106q90-39 192-39t192 39q91 39 159 106t106 159q39 90 39 192v99h-496v1z" horiz-adv-x="1000" />

<glyph glyph-name="uni0E16" unicode="&#xe808;" d="M514 850q-103 0-181-30-79-30-132-82t-80-117q-27-66-27-138 0-33 10-69 8-37 25-69t41-58q23-26 53-39 9-3 14-2t7 10q1 7 8 31t10 38q2 5 1 9t-5 8q-20 24-33 61t-14 77q0 51 20 98 19 47 56 84t90 59q53 22 121 22 59 0 108-18 48-19 84-51t54-78q20-46 20-99 0-62-15-114-16-51-42-87t-64-57q-37-21-78-21-47 0-77 32t-18 78q13 54 33 108t20 94q0 35-20 60t-60 25q-48 0-82-42t-33-105q0-41 9-65l10-25-10-41q-10-40-23-92t-25-101q-13-50-16-67-16-60-7-137t11-85q0-4 5-6t7 3q5 6 46 71t58 124q6 22 23 83l17 61q16-28 57-49t89-20q72 0 133 29t104 80 69 120 24 147q-1 76-32 140t-84 112-125 74-154 26v0z" horiz-adv-x="1000" />

<glyph glyph-name="uni0E17" unicode="&#xe809;" d="M0 539h224v-689h-224v689z m833-10q-2 1-4 1t-3 1q-2 1-4 1t-5 1q-9 2-19 3t-21 1q-48 0-88-15-41-16-71-37t-51-43-30-36v133h-225v-689h224v375l28 34t65 62 80 29q40 2 67-63v-133-144-114-47h224v465q0 78-47 137t-120 78v0z m-615 212q0-45-32-77t-77-32q-45 0-77 32t-32 77q0 46 32 77t77 32q45 0 77-32t32-77z" horiz-adv-x="1000" />

<glyph glyph-name="uni0E18" unicode="&#xe80a;" d="M286-7q0-59-42-101t-101-42q-59 0-101 42t-42 101q0 59 42 101t101 42q59 0 101-42t42-101z m-286 524v-190q99 0 186-37t151-103 102-151q37-86 37-185h190q0 138-52 259-52 121-143 212t-211 142q-122 53-260 53v0z m0 333v-191q167 0 315-64t257-173 174-257 64-315h190q0 207-79 389-78 181-214 318t-318 214q-182 79-389 79z" horiz-adv-x="1000" />

<glyph glyph-name="uni0E19" unicode="&#xe80b;" d="M613 637q21-3 41-8t41-11q36-11 69-26t64-35q2-2 5-2t5-1h74 73 6t6-1v-1-1q-2-3-4-5t-3-6q-12-19-23-39t-16-43q-1-2-1-4t2-5q33-47 43-99t-4-107q-12-48-40-87t-70-65q-30-19-64-29t-69-9q-15 0-30 2t-29 6q-37 9-67 27t-57 45l-7 8t-6 7q-14-21-27-40t-27-40q-14 20-26 40t-27 39q-1-1-1-1h-1l0-1-1 0q-31-36-69-58t-86-30q-26-5-52-3t-51 9q-36 10-66 29t-56 47q-24 27-39 59t-21 68q-7 34-2 63t6 36q6 23 16 44t23 41q1 2 1 4t0 3q-5 20-14 39t-21 37q-3 5-6 9t-7 8v1 1h1 1 75 76q1 0 3 1t3 1q27 18 55 31t58 24q22 8 44 14t43 10q22 4 43 7t44 4q55 5 98 1t71-8v0z m-63-332q0-41 15-78 17-36 44-63t63-43q37-16 78-16t78 16q36 15 63 42t44 64q15 36 15 78 0 43-16 80t-45 64-65 42q-36 14-78 13-41-1-77-17-35-16-62-43t-42-63q-14-35-15-76v0z m-300 199q-40 0-76-15-37-16-65-43t-43-64q-16-37-15-80 1-40 16-75 17-36 44-63t63-42 78-16q41 1 77 17 35 15 62 42t43 63q15 35 16 76 0 42-15 78t-43 64-64 43-78 15v0z m10 53q46-3 85-19t74-47q34-31 54-69t27-83q8 44 27 82t53 68q33 31 72 47t84 19q-53 24-109 34t-113 12q-66 2-130-8t-124-36z m489-126q51 0 87-36t37-87q0-52-35-87t-84-37q-54-2-91 35t-38 89q0 52 37 88t87 35z m81-124q0 34-23 58t-57 23q-34 0-58-23t-23-57 23-57 58-24q32-1 56 23t24 57z m-582 124q51 0 87-36t37-87q0-52-36-87t-82-37q-54-2-92 35t-38 89 37 88 87 35z m80-123q0 34-24 58t-58 22q-33 0-56-24t-24-57 24-57 57-24 57 24 24 58z m421 40q18 0 29-12t12-29q0-17-12-29t-29-12-29 12-12 29 12 29 29 12z m-501 1q18 0 29-12t13-29q0-18-12-29t-29-12q-18 0-29 12t-12 30q-2 17 10 28t30 12v0z" horiz-adv-x="1000" />

<glyph glyph-name="uni0E20" unicode="&#xe80c;" d="M1000 660q-27-12-57-20t-61-12q32 19 56 48t34 65q-30-18-62-30t-68-20q-28 30-67 48t-83 17q-43 0-80-16-37-16-65-44t-44-66q-16-37-16-79 0-11 1-24t4-23q-63 3-124 20-59 16-113 43t-101 66-85 85q-13-23-21-49t-7-55q0-53 25-98t66-72q-24 1-47 8t-45 18v-1-1q0-75 47-131t117-70q-12-4-26-5t-28-2q-9 0-19 1t-20 2q20-60 72-101t120-42q-52-41-117-64t-137-23q-13 0-25 1t-24 2q34-22 71-40 37-16 77-28t82-18q42-6 85-6 141 0 250 53 109 53 183 137t112 188q39 104 39 205 0 7 0 13t-1 13q30 23 55 49t47 58z" horiz-adv-x="1000" />

<glyph glyph-name="uni0E21" unicode="&#xe80d;" d="M680 16q-21 0-40 4t-34 15q-14 7-24 19t-15 24q-4 12-5 38t0 69v227h248v186h-248v248h-160q-4-38-13-70t-22-56q-11-24-29-46t-37-39q-21-18-51-32t-60-22v-141h133v-348q0-35 4-60t10-44q8-18 20-35t31-33q19-15 41-28t48-21q26-8 49-13t58-4q30 0 58 3t53 9q26 6 54 16t60 23v150q-36-24-64-32t-65-7v0z" horiz-adv-x="1000" />

<glyph glyph-name="uni0E51" unicode="&#xe80e;" d="M402 454q0 36-16 42l-16 5h-132v-101h124q17 0 29 9t11 45v0z m-32-123h-132v-122h126q14 0 34 10t20 49q0 47-24 55z m338 69q-53 0-66-35l-14-34h149l-8 34t-61 35z m-208 450q-103 0-194-39-91-40-159-108t-108-159q-39-90-39-194t39-194q40-91 108-159t159-108q91-39 194-39t194 39q91 40 159 108t108 159q39 91 39 194t-39 194q-40 91-108 159t-159 108q-90 39-194 39z m109-295h187v-56h-187v56z m-95-293q0-104-72-119l-72-15h-236v454h236q54 0 91-30t37-91q0-61-35-73l-34-13q69 0 77-56z m195-72q57 0 65 24l8 25h80q0-49-24-74-24-25-53-35t-54-11l-24-1q-69 0-105 27t-52 60-16 59l-1 27 3 27q2 27 19 60t51 60 101 27q69 0 103-31 33-30 45-67t11-68l-1-31h-236q0-62 40-70l40-8v0z" horiz-adv-x="1000" />

<glyph glyph-name="uni0E52" unicode="&#xe80f;" d="M263 313h39v-214h38v214h40v35h-117v-35z m317-26q-9 0-17-5t-18-15v82h-34v-250h34v18q9-10 18-15t17-6q10 0 17 6t10 15q1 6 2 15t1 22v74q0 14-1 23t-2 14q-3 11-10 16t-17 6z m-4-135q0-13-4-19t-11-6q-4 0-8 2t-9 6v113q5 4 9 6t8 2q7 0 11-7t4-18v-79z m-128-10q-6-8-11-12t-10-4q-4 0-6 2t-2 6v4 9 138h-34v-147q0-10 1-16t2-12q3-7 8-10t14-4 19 6 20 17v-20h34v186h-34v-143h-1z m29 314q8 0 12 7t4 19v79q0 13-4 20t-12 6q-8 0-12-6t-4-20v-79q0-13 4-19t12-7z m23 394q-103 0-194-39-91-40-159-108t-108-159q-39-90-39-194t39-194q40-91 108-159t159-108q91-39 194-39t194 39q91 40 159 108t108 159q39 91 39 194t-39 194q-40 91-108 159t-159 108q-90 39-194 39z m56-234h34v-138-9-4q1-4 3-6t5-2q6 0 11 4t11 12v143h34v-188h-34v21q-11-12-20-17t-19-6q-9 0-14 3t-8 11q-1 5-2 12t-1 16v148z m-129-61q0 15 2 26t10 18q5 10 16 14t23 5q13 0 23-5t17-14q5-7 8-18t3-26v-66q0-15-2-26t-9-18q-6-10-16-14t-24-5q-13 0-23 5t-16 14q-6 7-9 18t-3 26v66 0z m-91 125l27-99 26 99h38l-45-150v-102h-38v102q-2 13-8 33t-15 47q-6 17-12 35t-12 35q-1 0 19 0h20v0z m433-598q-5-22-22-37t-38-18q-52-5-104-6t-105-1-105 1-104 7q-21 3-38 18t-22 37q-7 32-9 65t-1 67 1 67 9 65q5 23 22 38t38 17q52 5 104 5t105 1 105-1 104-7q22-2 38-17t22-38q7-31 9-65t1-67-1-66-9-65v0z m-82 205q-13 0-23-5t-16-14q-6-7-9-18t-2-26v-65q0-15 3-26t8-18q7-10 18-14t24-5q12 0 22 5t19 15q2 5 4 9t3 11q0 2 1 8t0 14v6h-34v-17t-1-7q-2-7-5-10t-9-4q-10 0-14 7t-4 19v33h67v39q0 15-2 25t-8 19q-9 10-19 14t-23 5z m17-74h-34v17q0 13 4 19t13 7q8 0 13-7t4-19v-17z" horiz-adv-x="1000" />

<glyph glyph-name="uni0E53" unicode="&#xe810;" d="M500 848q-103 0-193-39-91-39-159-107t-107-159q-39-89-39-193t39-193q39-91 107-159t159-107q90-39 193-39t193 39q91 39 159 107t107 159q39 90 39 193t-39 193q-39 91-107 159t-159 107q-89 39-193 39z m213-683q-1-3-3-12t-4-16q-3-9-10-10t-17 2q-14 3-26 4t-27-3q-24-4-52-29t-71-25q-46 0-74 25t-53 29q-26 4-41 1t-25-4q-6 0-10 4t-4 6q-2 8-4 16t-3 12q-17 2-47 10t-31 25q0 5 3 8t7 5q58 10 92 57t27 62q-4 10-19 15t-22 7q-21 9-26 17t-3 14q2 9 10 14t18 5 22-7 25 0q-1 31-3 69t9 63q21 47 62 70t87 24 87-24 63-70q10-25 9-63t-3-69q11-6 24 0t22 7 20-6 10-17q0-8-7-16t-22-12q-9-3-23-7t-18-15q-6-14 28-62t91-57q4-1 7-4t3-9q-2-17-31-24t-47-10z" horiz-adv-x="1000" />

<glyph glyph-name="uni0E54" unicode="&#xe811;" d="M649 352q0-60-43-101t-105-42-105 42-43 101 43 101 105 42 105-42 43-101z m82-8q0-46-19-87-18-40-49-70t-73-48q-42-16-89-16t-89 16q-42 18-73 48t-49 70q-17 41-17 87 0 17 1 32t7 31h-68v-311q0-12 9-20t20-9h513q12 0 20 9t9 20v311h-64q5-15 8-31t3-32z m-63 147h83q14 0 23 9t10 24v79q0 14-10 23t-23 10h-83q-14 0-23-10t-10-23v-79q0-14 10-24t23-9z m-168 359q-103 0-194-39-91-40-159-108t-108-159q-39-90-39-194t39-194q40-91 108-159t159-108q91-39 194-39t194 39q91 40 159 108t108 159q39 91 39 194t-39 194q-40 91-108 159t-159 108q-90 39-194 39z m274-868h-548q-39 0-67 26t-28 69v547q0 42 28 69t67 26h548q40 0 67-26t28-69v-548q-1-42-28-68t-67-26z" horiz-adv-x="1000" />

<glyph glyph-name="uni0E55" unicode="&#xe812;" d="M519 506q0 52-31 115t-90 62q-19 0-38-9t-29-23q-12-15-16-33t-5-37q0-49 29-111t91-61q18 0 36 7t29 20q17 16 20 36t4 34v0z m-52-254q-6 0-10 1t-12 0-39-3-62-12q-16-6-50-27t-33-72 46-84 123-33q69 0 105 30t36 74q0 37-25 62t-79 64v0z m33 598q-103 0-194-39-91-40-159-108t-108-159q-39-90-39-194t39-194q40-91 108-159t159-108q91-39 194-39t194 39q91 40 159 108t108 159q39 91 39 194t-39 194q-40 91-108 159t-159 108q-90 39-194 39z m-116-869q-105 0-155 42t-51 96q0 26 15 59t59 58q45 28 98 35t85 9q-10 12-19 28t-10 37q0 12 3 21t7 17q-8-1-16-1t-15-1q-76 0-118 48t-41 103q0 33 15 68t46 61q41 34 92 46t90 12h189l-63-39h-59q17-14 42-44t26-86q0-53-25-83t-56-53q-9-10-18-21t-9-27q0-16 8-25t18-16l34-27q32-27 56-56t25-78q0-35-17-68-16-32-48-58t-79-42-109-15v0z m414 381v-97h-48v97h-96v48h96v96h48v-96h97v-48h-97v0z" horiz-adv-x="1000" />

<glyph glyph-name="uni0E56" unicode="&#xe813;" d="M500 850q-103 0-194-39-91-40-159-108t-108-159q-39-90-39-194t39-194q40-91 108-159t159-108q91-39 194-39t194 39q91 40 159 108t108 159q39 91 39 194t-39 194q-40 91-108 159t-159 108q-90 39-194 39z m58-666q-35 0-64 16t-41 37l-13-52t-17-66q-14-50-44-93t-33-47q-2-3-6-3t-4 5q-1 7-6 59t7 104l12 51q9 38 19 78t17 72l7 32-7 19t-7 49q0 48 24 79t59 32q29 0 43-19t15-45q0-30-14-71t-24-81q-8-34 13-58t55-24q60 0 98 68t38 160q0 70-46 117t-132 47q-49 0-88-17t-66-45-42-65-15-78q0-28 8-48t20-36q6-7 7-11t-1-13q-2-6-5-17t-4-17q-3-9-8-11t-13 0q-45 18-67 63t-21 101q0 45 19 93t58 87 96 64q56 24 133 24 61 0 112-20 50-21 85-55t55-78 19-92q0-64-16-118-18-54-48-93t-73-62q-43-22-94-22v0z" horiz-adv-x="1000" />

<glyph glyph-name="uni0E57" unicode="&#xe814;" d="M500 850q-103 0-194-39-91-40-159-108t-108-159q-39-90-39-194t39-194q40-91 108-159t159-108q91-39 194-39t194 39q91 40 159 108t108 159q39 91 39 194t-39 194q-40 91-108 159t-159 108q-90 39-194 39z m-186-839h-142v453h142v-453z m-72 515q-34 0-58 24t-24 58q0 34 24 57t58 24q33 0 57-24t24-57q1-34-23-58t-58-24z m597-515h-140v220q0 39-9 79t-64 41q-55 0-69-36t-15-80v-224h-140v453h135v-62h2q15 27 48 50t85 23q106 0 138-62t31-153q-1 0-1-39t-1-85 0-86v-39 0z" horiz-adv-x="1000" />

<glyph glyph-name="uni0E58" unicode="&#xe815;" d="M500 850q-103 0-194-39-91-40-159-108t-108-159q-39-90-39-194t39-194q40-91 108-159t159-108q91-39 194-39t194 39q91 40 159 108t108 159q39 91 39 194t-39 194q-40 91-108 159t-159 108q-90 39-194 39z m-188-750q-26 0-44 18t-18 44q0 26 18 44t44 18q26 0 44-18t18-44q0-26-18-44t-44-18z m172 0q0 49-18 91-19 43-50 75t-75 50q-42 18-91 18v94q68 0 128-26 60-26 104-70t70-104q26-60 26-128h-94z m188 0q0 42-8 83-9 41-24 79t-38 72q-24 35-54 64-30 30-65 54-34 22-72 38t-78 24q-41 8-83 8v94q52 0 102-10t96-29 88-47 79-65q36-36 65-79 28-42 47-88t29-96 10-102h-94z" horiz-adv-x="1000" />

<glyph glyph-name="uni0E59" unicode="&#xe816;" d="M689 379q-27 0-44-18t-18-43q0-25 18-43t44-18q24 0 42 18t18 43q-1 25-18 43t-42 18v0z m0-92q-14 0-23 9t-9 22q0 13 9 22t23 9q12 0 21-9t9-22q-1-13-10-22t-20-9z m-377 179q-61 1-106-44t-44-109q1-60 45-104t108-43q61 0 104 44t44 105q0 63-44 107t-107 44v0z m3-241q-41-2-69 26t-29 67q0 40 28 67t65 26q39 0 66-27t27-66-26-65-62-28v0z m185 625q-103 0-194-39-91-40-159-108t-108-159q-39-90-39-194t39-194q40-91 108-159t159-108q91-39 194-39t194 39q91 40 159 108t108 159q39 91 39 194t-39 194q-40 91-108 159t-159 108q-90 39-194 39z m287-694q-23-14-48-21t-52-8q-11 0-22 2t-23 4q-27 7-50 21t-42 34q-2 3-5 5t-5 6q-10-15-20-30t-20-30q-11 15-20 30t-20 29q-1 0-1-1v0l0-1-1 0q-23-27-53-44t-64-22q-20-3-39-2t-39 6q-27 7-50 22t-42 35q-18 20-29 44t-16 52q-5 26-1 47t4 27q5 17 12 33t17 31q1 1 2 3t0 3q-5 15-11 29t-15 28q-2 4-5 7t-4 6v1 1h1 1 57 56q1 0 2 1l3 1q21 13 42 23t43 18q16 6 32 10t35 8q15 3 31 5t33 4q41 3 72 0t53-6q16-2 31-6l31-8q26-9 51-20t49-26q1-1 4-1t4-1h56 55 5 4v-1 0l-3-4t-2-3q-10-15-17-30t-13-33q-1-2-1-3t2-4q25-35 33-74t-3-81q-11-38-32-67t-53-49v0z m-478 223q-25 0-42-18t-18-43q0-25 18-43t43-18q25 0 43 18t18 43q0 25-18 43t-44 18v0z m1-92q-13 0-22 9t-9 22 9 22 22 9 22-9 9-22-9-22-22-9v0z m374 179q-62-2-104-45t-43-105q0-63 44-107t106-44q62 0 106 44t44 106q1 65-45 109t-108 42z m7-241q-41-2-69 26t-28 67q0 40 28 67t65 26q39 0 66-27t27-66q0-38-27-65t-62-28z m-131 231q25 22 55 34t63 15q-39 18-81 26t-86 9q-49 0-97-7t-94-27q35-3 64-14t56-35q26-23 41-52t20-62q5 32 20 61t39 52v0z" horiz-adv-x="1000" />

<glyph glyph-name="uni0E60" unicode="&#xe817;" d="M500 850q-103 0-194-39-91-40-159-108t-108-159q-39-90-39-194t39-194q40-91 108-159t159-108q91-39 194-39t194 39q91 40 159 108t108 159q39 91 39 194t-39 194q-40 91-108 159t-159 108q-90 39-194 39z m302-367v-9-9q0-80-29-158-31-78-86-140t-137-99-183-38q-62 0-122 17t-112 52q-1 1-2 2t1 2q1 2 2 2t2 0q9-1 18-2t18 0q49 0 94 15t84 43q-46 5-83 35t-52 74v2t1 2 1 1h2q12-2 26-2t27 1q-49 16-80 57t-30 91v2q0 1 1 2l1 1t2 1 2-1q13-7 26-11t28-7q-28 22-43 54t-15 67q0 20 5 40t16 38q1 1 2 1t2 1h1t1-1q28-34 63-62 34-28 73-48t81-32q43-11 88-15-2 7-2 15t-1 16q0 64 46 110t109 45q32 0 61-12t51-35q25 5 48 14t45 22h2 2q0-1 1-2l0-2q-7-23-22-42t-33-35q18 3 36 9t34 12q1 1 2 0t2-1 1-2-1-2q-15-23-34-43t-41-36z" horiz-adv-x="1000" />

<glyph glyph-name="uni0E61" unicode="&#xe818;" d="M500 850q-103 0-194-39-91-40-159-108t-108-159q-39-90-39-194t39-194q40-91 108-159t159-108q91-39 194-39t194 39q91 40 159 108t108 159q39 91 39 194t-39 194q-40 91-108 159t-159 108q-90 39-194 39z m-122-656v210h-41-37v49 49q45 13 80 55t49 91q6 21 7 35l1 14h48 63v-90-89h65 65v-113h-64-67v-34-31-66-65q0-86 57-77t65 11l32-106q-11-11-62-25t-110-5-104 49q-47 41-47 138v0z" horiz-adv-x="1000" />

<glyph glyph-name="uni0E62" unicode="&#xe819;" d="M500 850q-103 0-194-39-91-40-159-108t-108-159q-39-90-39-194t39-194q40-91 108-159t159-108q91-39 194-39t194 39q91 40 159 108t108 159q39 91 39 194t-39 194q-40 91-108 159t-159 108q-90 39-194 39z m254-554q18-17 36-34t33-35q7-8 13-17t12-19q7-14 2-26t-18-14h-101q-20-1-37 6t-29 21q-11 11-20 22t-21 23l-9 9t-9 7q-10 7-19 5t-15-13-8-23-3-25q0-18-7-24t-26-8q-39-1-76 5t-71 27q-30 18-54 42t-45 50q-40 54-71 112t-59 119q-5 14-1 21t19 7q24 1 50 1t50-1q10 0 17-6t11-15q14-33 30-65t38-61q5-8 11-15t15-13q9-6 16-4t11 12q3 6 4 13t2 13q3 23 2 46t-4 47q-2 14-10 24t-23 11q-7 2-7 4t3 7q6 8 12 12t19 4h116q14-3 18-9t7-21v-129q0-5 4-17t12-16q7-2 13 2t10 9q21 22 37 48t28 52q6 12 11 24t10 25q4 9 9 13t17 5h111 5t5-1q15-2 19-9t-1-21q-7-22-19-41t-25-36q-14-19-28-38t-29-38q-12-17-10-28t17-26v0z" horiz-adv-x="1000" />

<glyph glyph-name="uni0E63" unicode="&#xe81a;" d="M500 843q-102 0-191-39t-157-106-106-157-39-191 39-191 106-157 157-106 191-39 191 39 157 106 106 157 39 191-39 191-106 157-157 106-191 39z m290-422q-13-69-49-131t-78-113-83-84-61-48q-41-27-76-2t-46 54q-9 16-23 62-15 46-30 95t-29 90q-12 41-19 49-12 15-38-2l-27-17-24 31 17 19q16 19 42 42t57 46q31 22 59 28 30 5 47-14 16-21 26-52t14-69q6-37 13-67 14-56 25-87t23-31q12 0 35 29t47 77q26 48 4 79t-72 1q10 60 54 96 45 36 92 41t80-24 20-98z" horiz-adv-x="1000" />

<glyph glyph-name="uni0E64" unicode="&#xe81b;" d="M500 848q-103 0-193-39-91-39-159-107t-107-159q-39-89-39-193t39-193q39-91 107-159t159-107q90-39 193-39t193 39q91 39 159 107t107 159q39 90 39 193t-39 193q-39 91-107 159t-159 107q-89 39-193 39z m135-792q-24 0-46 6t-40 19q-12-2-25-4t-25-1q-57 0-106 21t-87 59-60 87q-21 49-21 106 0 11 1 22l2 21q-13 20-19 42t-7 47q0 67 48 116t116 48q25 0 48-7t41-20q11 2 22 3t22 2q57 0 107-22t86-59 59-86q22-50 22-107 0-10 0-19t-3-18q13-20 21-43t7-49q1-68-47-116t-116-48v0z m-171 345q-60 14-40 51t68 35q46 0 73-33t49-30q21 2 31 29t-23 55q-28 25-67 37t-95 7q-44-4-80-33t-41-84q-5-56 46-84t103-37q36-5 70-24t6-52q-28-32-69-22t-55 17q-13 9-30 30t-42 20q-25-1-33-29t24-57q28-27 64-40t101-10q65 4 111 52t24 102q-23 55-79 71t-116 29v0z" horiz-adv-x="1000" />

<glyph glyph-name="uniE906-1" unicode="&#xe81c;" d="M500 849q-103 0-194-39-91-40-158-107t-108-159q-39-90-39-194t39-194q40-91 108-159t158-107q91-39 194-39t194 39q91 40 159 107t107 159q39 91 39 194t-39 194q-40 91-107 159t-159 107q-90 39-194 39z m0-918q-87 0-163 33-76 32-133 90t-90 133q-33 76-33 163t33 163q33 76 90 133t133 90q76 33 163 33t163-33q76-32 133-90t90-133q33-76 33-163t-33-163q-32-76-90-133t-133-90q-76-33-163-33z m10 531h-20q-15 0-25-7t-10-19v-366q0-10 10-18t25-8h20q15 0 25 8t10 18v366q0 12-10 19t-25 7z m0 195h-20q-14 0-25-11t-10-23v-61q0-15 10-25t25-10h20q14 0 25 10t10 25v61q0 13-10 23t-25 11z" horiz-adv-x="1000" />

<glyph glyph-name="uniE907-1" unicode="&#xe81d;" d="M856 492v0q-75 74-167 110-93 37-190 37t-189-37q-93-36-167-110l-141-140 145-144q35-36 76-63t86-46 94-29 100-10 100 10 94 28 86 46q41 28 77 64l138 140z m-356 9q63 0 107-44t44-107-44-107-107-44-107 44-44 107 44 107 107 44z m-227-151q0-63 31-116t84-82q-52 14-101 42t-89 68l-90 91 89 89q43 44 95 72t107 41q-56-28-91-83t-35-122z m455 0q0 66-36 121t-91 83q55-14 107-42t95-71l90-91-89-89q-42-41-92-69t-102-42q52 29 85 82t33 118v0z" horiz-adv-x="1000" />

<glyph glyph-name="uniE908-1" unicode="&#xe81e;" d="M997 531q-4 55-28 103-25 49-63 85t-88 58q-48 21-104 23-59 2-115-20t-99-63q-44 42-99 64t-115 19q-55-2-104-23-50-22-88-58t-63-85q-24-48-28-103-1-9-1-19v-19q2-39 18-78t45-71l382-423q10-11 24-17t29-6 29 6 25 17l381 423q29 31 45 70t18 79v19t-1 19v0z m-82-33q-2-27-13-52t-29-45l-373-415-374 415q-19 21-29 46t-13 51v13t1 14q3 40 21 74 16 34 43 61t63 42q36 15 75 16h7q51 0 96-23t75-65q6-8 15-13t19-4 20 4 14 13q31 42 78 66t100 22q39-2 75-17 35-16 63-42t46-60 20-74v-14-13 0z" horiz-adv-x="1000" />

<glyph glyph-name="uniE90A-1" unicode="&#xe81f;" d="M565 350l421 421q7 7 10 15t3 18q0 9-3 17t-10 15l-1 1q-4 4-12 8t-19 4q-10 0-18-3t-14-10l-422-421-421 421q-13 13-32 13t-31-13q-7-5-11-14t-3-18q0-10 3-18t10-15l421-421-422-421q-7-7-10-15t-3-18q0-9 3-17t10-15q6-6 14-10t18-3 17 3 15 10l422 422 421-421q6-6 15-10t17-3 17 3 15 10q6 6 10 15t3 17-3 17-10 15l-420 421v0z" horiz-adv-x="1000" />

<glyph glyph-name="uniE90B-1" unicode="&#xe820;" d="M985-74l-239 239q45 55 69 123t24 140q0 87-33 163-33 76-90 133t-133 89q-76 33-162 33t-162-33q-76-32-133-89t-89-133q-33-76-33-162 0-87 32-163 33-77 90-134t133-90q76-32 163-32 73 0 140 24t124 70l238-238q6-6 14-10t16-3q8 0 15 3t13 9 10 12 4 16v2q1 9-2 17t-9 14z m-230 501q0-68-26-129-27-61-72-106t-106-71-130-27q-68 0-129 27t-106 71-72 106-26 130q0 69 26 129t72 106 106 72 130 26q68 0 129-26 61-27 106-72t72-106 26-130z" horiz-adv-x="1000" />

<glyph glyph-name="uniE90C-1" unicode="&#xe821;" d="M2 772q0-16 10-25t25-10h91l95-477q10-54 54-89t98-36h462q15 0 25 10t10 25-10 26-25 10h-458q-14 0-26 3t-23 12l556 76q12 0 21 10t10 20l81 321v2q0 3-1 10t-7 13l-3 2q-4 3-9 7t-16 3h-751l-17 90q-1 14-12 22t-23 9h-121q-15 1-25-9t-11-25v0z m911-153l-60-255-561-73-66 328h687v0z m-670-610q0-49 34-82t82-34 82 34 34 82-34 83-82 33-82-33-34-83z m116 44q18 0 31-13t13-31q0-17-13-31t-31-13q-17 0-30 13t-14 31q0 17 14 31t30 13z m286-44q0-49 33-82t83-34 82 34 34 82-34 83-82 33-83-33-33-83z m115 44q18 0 31-13t13-31q0-17-13-31t-31-13q-17 0-30 13t-14 31q0 17 14 31t30 13z" horiz-adv-x="1000" />

<glyph glyph-name="uniE90D-1" unicode="&#xe822;" d="M962 807h-121q-11 0-23-9t-12-22l-17-90h-751q-10 0-15-3t-10-7l-3-2q-5-6-7-12t-1-11v-2l81-321q1-11 10-20t21-10l556-76q-11-8-23-12t-26-4h-458q-15 0-25-10t-10-25q0-15 10-25t25-10h462q55 0 98 36t54 89l94 477h91q16 0 25 10t10 25q1 15-10 24t-25 10v0z m-188-188l-66-328-560 73-61 255h687v0z m-133-494q-49 0-82-33t-34-83 34-82 82-34 82 34 34 82-34 83-82 33z m44-116q0-17-14-31t-30-13q-17 0-31 13t-13 31 13 31 31 13q17 0 30-13t14-31z m-446 116q-49 0-82-33t-34-83 34-82 82-34 83 34 34 82-34 83-83 33z m45-116q0-17-13-31t-31-13q-17 0-30 13t-14 31 14 31 30 13q17 0 31-13t13-31z" horiz-adv-x="1000" />

<glyph glyph-name="uniE90E-1" unicode="&#xe823;" d="M994 468q-7 21-22 33t-35 15l-259 38-114 236q-10 18-27 28t-37 11q-19 0-37-11t-26-28l-116-236-259-38q-20-3-35-16t-22-32-2-39 21-35l186-182-45-257q-3-16 2-31t15-28q10-12 25-18t30-6q8 0 16 2t15 5l232 124 233-122q7-4 16-6t16-2q15 0 29 6t24 18q10 13 15 27t1 31l-44 259 186 182q15 14 20 33t-2 39v0z m-279-211q-7-7-10-16t-2-20l44-254-227 119q-4 2-9 4t-10 1-10-1-9-4l-229-118 44 252q2 11-1 21t-11 16l-185 179 254 37q10 1 19 8t13 17l114 230 114-230q4-10 13-17t18-7l255-37-185-180v0z" horiz-adv-x="1000" />

<glyph glyph-name="uniE90F-1" unicode="&#xe824;" d="M684 521q-43 0-74-31t-31-74v-26q-2 3-4 5t-6 5q-15 15-35 23t-41 8q-6 0-12-1t-13-2q5 6 11 10t14 4q5 0 10-2t9-5q6-5 13-7t16-1 14 5 12 9q4 6 7 13t1 16q-1 8-4 14t-10 13q-14 10-31 16t-36 6q-45 0-77-32t-32-77v-26q-4 4-8 9t-8 8q4 8 6 16t1 19q0 34-24 59t-59 24q-15 0-29-5t-26-16q-6-4-9-11t-4-15v-1q0-9 2-15t7-12q4-5 11-9t15-4 14 2 15 8q1 1 2 1h1q2 0 4-2t2-4q0-2-2-4t-4-2q-17 0-28-12t-11-27q0-17 12-28t27-11q15 0 25-10t10-25q0-14-10-25t-25-10q-8 0-15 4t-13 10q-4 6-11 10t-14 5q-8 2-15 0t-14-7q-6-5-10-11t-5-14q-2-7 0-14t7-14q17-22 40-33t50-12q33 0 60 18t41 45q12-27 39-45t59-18q32 0 58 17t39 44q14-25 39-41t56-16q44 0 74 31t31 74v101q0 21-7 40t-23 34q-14 15-33 23t-41 8v0z m27-207q0-11-8-19t-19-8q-11 0-19 8t-8 19v102q0 11 8 19t19 8q11 0 19-8t8-19v-102z m-248 11q0 12 9 21t21 9 21-9 9-21v-8q0-6-1-11t-7-9q-4-5-10-7t-13-1q-12 0-21 8t-9 21v7h1z m521 36v0q-2 2-4 4t-7 4q3 2 5 4l4 4q4 6 7 14t1 15q-1 5-1 9t-1 7q-1 4-1 8t-1 7q-1 7-5 13t-10 12l-1 1q-3 1-6 3t-6 2l4 5t4 5q4 7 5 15t-2 14q-2 7-5 15t-6 15-9 12-12 9q-2 1-5 2t-6 1q6 9 6 20t-5 19q-4 7-8 14t-9 13q-5 7-11 11t-14 5q-4 1-8 1t-9-1q6 9 7 20t-5 19l-45 89q-3 7-8 11t-12 8q-7 3-15 2t-16-3q-4-4-9-8t-7-8q-57 35-123 54t-135 18q-50 0-98-10t-92-28-84-45q-40-27-75-62-35-35-62-77-27-40-46-84t-28-92-10-97q0-50 10-97 9-47 28-92t46-84q27-41 62-76 6-7 13-9t14-3q6 0 11 1t9 4q-3-4-3-10t0-10q1-8 6-15t10-11q7-4 13-9t12-8l1-1q4-3 10-4t11-1 11 2 10 4q0-3 1-6t2-6q3-8 9-13t12-8l30-12q2-1 5-1t8-1q7 0 13 3t12 6q1-2 2-5t3-5q4-6 10-10t15-7q7-1 16-3t17-2h5q8 0 16 4t13 11q5-9 14-15t21-6h16t16 1q12 1 21 8t12 18q5-7 13-11t17-4q2 0 4 0t5 1q6 1 14 3t16 5q8 2 13 7t11 11q1 2 2 5t2 5q5-4 11-7t14-2q3 0 8 1t7 3q6 2 11 5t11 5l8 4q7 3 12 9t6 14q1 2 1 5t1 5l8-2t9-1q5 0 11 2t11 6q7 4 13 10t12 10q7 5 10 12t3 15q0 3 0 6t-2 6q2-1 5-1h5q9 0 16 4t13 9q5 6 10 12t10 13q5 6 7 13t2 16q-1 3-2 5t-2 5h2 1q8 0 17 5t16 14q3 5 5 9t5 9q1 2 2 5t3 5q4 7 5 15t-3 17v0q-2 2-3 4t-3 5q11 1 19 9t12 18q3 7 5 15t4 16q2 9 1 16t-5 13l-1 1q-1 2-3 4t-4 3q10 4 16 13t7 19v2q1 8 2 15t0 14q1 8-1 16t-9 13v0z m-187-321q-8 0-15-1t-14-8q-2-2-5-5t-5-4q-3-2-6-4t-5-5q-6-5-10-11t-5-14v-3-3q-1 1-3 1t-4 1v0q-8 3-15 2t-14-5l-6-3q-4-2-9-5t-9-3q-8-3-13-9t-7-13q-1-1-1-3t-1-4q-2 1-2 2t-3 2h-1q-6 4-14 5t-15-1q-6-2-12-4t-14-3q-8-2-14-6t-10-11l0-1-2-4t-2-3q-1 1-2 3t-3 3q-6 5-13 8t-15 1q-5-1-13-1h-13q-8 0-15-3t-13-9q0-1-1-2t-2-2q-4 8-11 14t-18 7h-1q-5 1-12 2t-14 3-16 1-13-6q-1-1-3-2t-2-2q0 2-1 3t0 2v3q-4 6-9 11t-13 7h-1q-5 1-11 4t-13 6q-9 4-18 3t-18-5q-1 7-4 14t-10 13l-5 4h-1q-3 1-4 3t-5 3q-3 1-6 3t-5 4q-5 4-12 6t-16 1q-3-1-7-2t-7-3q2 4 2 7t1 8v1q-1 9-5 15t-8 11q-29 30-53 65-22 35-38 72t-23 78-8 81q0 42 8 82t23 78 38 71q24 35 53 64t64 53q34 22 71 38t78 23 82 8q56 0 109-14t100-42q-2-3-3-6t-2-7q-2-7-1-15t5-13q4-6 10-11t14-7l95-25q3-1 6-1h5 4t4 1q-2-3-4-6t-2-6q-1-7 0-15t6-14l14-23q4-8 12-13t18-6q0-2-1-3l-2-1q-3-7-3-16t3-15q3-5 4-9t3-9l3-6q2-9 9-15t16-10q-1-2-2-3t-3-3q-4-6-6-14t0-15q1-6 2-12t1-12v-3q1-10 6-18t14-11q-7-5-12-13t-6-18q0-6 0-13t-2-13q-1-8 2-15t7-14l2-2 2-2q-1 0-2-1l-3-1q-6-4-10-10t-7-14q-2-5-4-12t-3-13v-1q-2-8-1-16t4-14q0-1 1-3t3-2q-8-1-17-7t-12-14q-2-3-3-6t-3-6q-2-3-3-6t-3-6q-4-7-5-15t1-14q0-2 1-4t2-3h-4-3q-7-1-14-5t-12-9q-2-2-4-5t-5-6q-3-3-5-5t-4-6q-5-6-7-13t-2-14q0-2 0-3t1-3q-2-2-4-2h-3v0z" horiz-adv-x="1000" />

<glyph glyph-name="uniE910-1" unicode="&#xe825;" d="M961 393h-418v418q0 16-11 27t-28 12h-10q-15 0-27-11t-12-28v-418h-416q-16 0-27-11t-12-28v-10q0-15 11-27t28-12h418v-418q0-16 11-27t28-12h10q16 0 27 11t12 28v420h418q16 0 27 11t12 28v10q-1 16-13 26t-28 11v0z" horiz-adv-x="1000" />

<glyph glyph-name="uniE911-1" unicode="&#xe826;" d="M995 572q-2 3-6 8t-5 7l-170 170q-6 5-14 9t-16 3q-9 0-16-3t-13-9-8-13-4-16q0-8 3-16t9-13l103-103h-641q-17 0-29-12t-13-30q0-18 12-30t30-12h641l-103-101q-6-6-9-14t-3-15q0-9 3-16t9-13 13-9 15-3q7 0 15 4t13 8l173 173q1 2 4 4t5 9l1 1q4 5 5 15t-4 17z m-988-448q1-1 3-4t4-5l172-172q6-6 13-9t15-3q7 0 15 3t14 10q5 6 8 13t3 16-3 16-9 13l-101 101h641q17 0 29 12t12 26q1 10-2 17t-6 12l-3 2q-6 6-14 9t-16 3h-640l103 103q5 5 8 13t4 16q0 9-3 16t-9 13q-5 5-13 8t-16 4q-8 0-16-3t-13-9l-174-171q-1-2-4-5t-5-8q-4-8-4-17t4-16z" horiz-adv-x="1000" />

<glyph glyph-name="uniE912-1" unicode="&#xe827;" d="M961 393h-922q-16 0-27-11t-12-28v-10q0-15 11-27t28-12h923q16 0 27 11t12 28v10q-1 17-12 28t-28 11v0z" horiz-adv-x="1000" />

<glyph glyph-name="uniE92B-1" unicode="&#xe828;" d="M500 847q-102 0-193-39t-159-106-106-159-39-193 39-193 106-159 159-106 193-39 193 39 159 106 106 159 39 193-39 193-106 159-159 106-193 39z m0-914q-86 0-162 33-76 32-133 89t-89 133q-33 76-33 162t33 162q32 76 89 133t133 89q76 33 162 33t162-33q76-32 133-89t89-133q33-76 33-162t-33-162q-32-76-89-133t-133-89q-76-33-162-33z" horiz-adv-x="1000" />

<glyph glyph-name="uniE92D-1" unicode="&#xe829;" d="M995 535q-4 53-27 101-24 47-61 82t-86 57q-48 20-102 22-61 2-119-22t-100-69q-43 44-100 69t-119 22q-54-2-102-22-49-22-86-57t-61-82q-23-48-27-101-1-9-1-18v-19q2-39 18-75t43-68l392-434q8-10 20-14t23-5 23 5 21 14l391 434q28 31 44 68t17 75v19t-1 18v0z" horiz-adv-x="1000" />

<glyph glyph-name="uniE92E-1" unicode="&#xe82a;" d="M164 177q-66 0-114-48t-48-115q0-68 48-116t114-48q67 0 115 48t48 114q0 68-48 116t-115 49z m73-161q-1-30-22-52t-51-21-51 22-22 51 22 51 51 22q31-1 52-22t21-51z m263 161q-67 0-115-48t-47-115q0-66 48-115t114-49q67 0 115 48t47 114q0 68-48 116t-114 49z m0-236q-29 0-51 22t-22 51 22 51 51 22 51-22 22-51-22-51-51-22z m336 236q-67 0-115-48t-48-115q0-66 48-114t115-48q66 0 114 48t48 114q0 67-48 115t-114 48z m73-163q0-29-22-51t-51-22-51 22-22 51 22 51 51 22 51-21 22-52z m-747 174q68 0 115 47t48 115-47 115-114 47q-68 0-116-47t-48-115q1-67 48-115t114-47z m-71 162q0 29 22 51t51 22 51-22 22-51q-1-31-22-52t-51-21-51 22-22 51z m409 162q-67 0-115-47t-47-115 47-115 115-47 115 47 47 115-47 115-115 47z m0-235q-29 0-51 22t-22 51 22 51 51 22 51-22 22-51-22-51-51-22z m336-89q66 0 115 48t49 114q0 67-48 115t-116 47q-67 0-115-47t-48-115 48-115 115-47z m-73 162q0 29 22 51t51 22 51-22 22-51-22-51-51-22q-31 0-52 22t-21 51z m-601 173q68 0 115 48t48 115q0 68-47 116t-114 48q-68 0-116-48t-48-116q1-67 48-115t114-48z m-71 165q0 29 22 51t51 22 51-22 22-51q0-30-22-52t-51-21-51 21-22 52z m409 160q-67 0-115-48t-47-114q0-67 47-115t115-48 115 48 47 115q0 68-47 115t-115 47z m0-233q-29 0-51 21t-22 52q0 29 22 51t51 22 51-22 22-51q0-31-22-52t-51-21z m336-92q66 0 114 48t48 115q0 68-48 116t-114 48q-67 0-115-48t-48-114q0-67 48-116t115-49z m-73 163q0 29 22 51t51 22 51-22 22-51-22-51-51-22q-31 0-52 21t-21 52z" horiz-adv-x="1000" />

<glyph glyph-name="uniE92F-1" unicode="&#xe82b;" d="M166 177q-67 0-115-48t-47-115q0-66 47-115t115-49 115 48 47 114q-1 69-49 117t-113 48z m73-161q-1-30-22-52t-51-21-51 22-22 51 22 51 51 22 51-22 22-51z m-75 172q67 0 115 47t48 115-47 115-114 47q-68 0-116-47t-48-115 48-115 114-47z m-71 162q0 29 22 51t51 22 51-22 22-51q-1-31-22-52t-51-21-51 22-22 51v0z m71 173q67 0 115 48t48 115q0 68-47 116t-114 48q-68 0-116-48t-48-116 48-116 114-47z m-71 163q0 29 22 51t51 22 51-22 22-51-22-51-51-22-51 22-22 51v0z m877 41h-580q-11 0-19-7t-9-20v-34q0-10 8-19t20-8h580q11 0 18 7t8 20v34q0 10-8 19t-18 8z m0-334h-580q-11 0-19-7t-9-20v-34q0-10 8-19t20-8h580q11 0 18 7t8 20v36q0 10-8 18t-18 7v0z m0-334h-580q-11 0-19-7t-9-19v-35q0-10 8-19t20-8h580q11 0 18 7t8 20v35q0 8-7 17t-19 9z" horiz-adv-x="1000" />

<glyph glyph-name="uniE932-1" unicode="&#xe82c;" d="M780 222q-36 0-70-14t-61-40l-5-5t-6-7l-240 147q3 12 5 24t2 25-2 25-5 24l241 145q26-32 63-49t78-18q76 0 130 54t54 131q0 75-54 129t-130 54q-77 0-131-54t-53-131q0-10 1-22t5-24l-243-146q-25 30-62 48t-78 17q-76 0-130-54t-54-130 54-130 130-54q41 0 77 18t63 47l242-147q-3-10-4-22t-1-24q0-37 13-70t41-62q26-27 60-40t71-14q36 0 70 14t61 40q27 26 40 60t14 72q0 35-13 68t-41 62q-28 26-62 39t-70 14v0z m105-185q0-20-8-39t-21-35q-15-14-34-22t-41-8q-20 0-39 7t-35 23q-15 14-22 33t-8 41q0 20 8 39t22 35q15 14 33 22t41 8q20 0 39-7t36-23q14-16 21-35t8-39z m-208 625q0 43 30 73t74 31q43 0 74-31t31-73q0-42-30-73t-74-31q-43 1-74 31t-31 73z m-353-312q0-43-30-73t-74-30q-43 0-73 30t-30 73 31 73 72 30q43 0 74-30t30-73z" horiz-adv-x="1000" />

<glyph glyph-name="uniE934-1" unicode="&#xe82d;" d="M161 563q48 0 86 28t51 74h643q16 0 29 12t12 29q0 17-12 29t-29 13h-643q-14 44-51 72t-86 28q-59 0-101-42t-42-100q0-59 42-101t101-42v0z m-60 143q0 25 18 42t42 18 42-18 18-42q0-25-18-42t-42-18q-24-1-42 17t-18 43z m738-569q-48 0-86-28t-51-74h-643q-16 0-29-12t-12-29q0-16 12-29t29-13h643q14-44 51-73t86-28q59 0 101 42t42 101q0 59-42 101t-101 42z m60-143q0-24-18-42t-42-17-42 17-18 42q0 26 18 44t42 17 42-17 18-44z m-840 315h305q14-45 53-73t86-29q48 0 86 29t53 73h298q16 0 29 12t12 28q0 8-2 16t-8 13-13 10-16 3h-297q-13 47-53 78t-89 31-89-30-52-79h-303q-16 0-29-12t-12-29q0-17 12-29t29-12v0z m381 45q0 27 19 46t45 18q26 0 45-19t19-45q0-27-18-45t-46-19-45 19-19 45v0z" horiz-adv-x="1000" />

<glyph glyph-name="uniE936-1" unicode="&#xe82e;" d="M48 581h904q19 0 32 13t13 32q0 19-13 32t-32 13h-904q-19 0-32-13t-13-32q0-19 13-32t32-13v0z m904-186h-904q-19 0-32-13t-13-32 13-32 32-13h904q19 0 32 13t13 32-13 32-32 13z m0-276h-904q-19 0-32-13t-13-32q0-19 13-32t32-13h904q19 0 32 13t13 32q0 19-13 32t-32 13z" horiz-adv-x="1000" />

<glyph glyph-name="uniE937-1" unicode="&#xe82f;" d="M966 749v0q-1 14-11 24t-25 10h-92v30q0 13-10 24t-26 12h-112q-12 0-24-10t-12-26v-30h-313v30q0 13-10 24t-26 12h-110q-12 0-24-10t-12-26v-30h-89q-12 0-24-10t-11-25v-860q0-13 10-24t26-12h859q12 0 24 10t12 26v861z m-733-31v60h42v-60h-42z m492 0v60h42v-60h-42z m-30-70h111q12 0 24 10t12 26v30h57v-106h-793v105h59v-29q-1-7 2-13t7-12q6-5 12-8t14-3h112q13 0 24 10t12 26v30h312v-30q-1-14 9-25t26-11z m-589-726v617h792v-617h-792v0z m73 59h643v500h-643v-500 0z m573 144v-75h-74v74h74v1z m0 143v-75h-74v75h74z m0 144v-75h-74v75h74z m-143-287v-75h-73v74h73v1z m0 143v-75h-73v75h73z m0 144v-75h-73v75h73z m-144-287v-75h-74v74h74v1z m0 143v-75h-74v75h74z m0 144v-75h-74v75h74z m-143-287v-75h-74v74h74v1z m1 143v-75h-74v75h74z m0 144v-75h-74v75h74z" horiz-adv-x="1000" />

<glyph glyph-name="uniE938-1" unicode="&#xe830;" d="M877 831h-755q-51 0-86-36t-36-86v-517q0-50 36-86t86-36h93l87-176q5-11 15-18t23-7 21 6 16 17l88 177h412q51 0 86 36t36 86v518q0 50-36 86t-86 36v0z m40-122v-517q0-16-11-27t-27-11h-439q-12 0-22-7t-15-16l-63-124-61 123q-5 11-15 17t-23 7h-119q-15 0-26 11t-11 26v518q0 16 11 27t27 12h756q16 0 27-12t11-27z" horiz-adv-x="1000" />

<glyph glyph-name="uniE939-1" unicode="&#xe831;" d="M500 847v0q-102 0-193-39t-159-106-106-159-39-193 39-193 106-159 159-106 193-39 193 39 159 106 106 159 39 193-40 192q-39 91-106 159t-159 106q-89 40-192 40z m38-683v146h173q-2-44-9-85t-18-80q-35 7-71 11t-75 8z m247-123q-21-19-45-36t-48-29q13 18 24 39t20 41q13-3 25-7t24-8v0z m-247-104v149q30-1 61-4t59-9q-24-52-55-87t-65-49z m379 373q-5-57-24-109t-54-99q-21 9-41 16t-38 13q13 43 20 88t9 91h128v0z m-206 77h-173v149q34 2 70 5t76 11q12-40 19-81t8-84v0z m24 257q-8 21-19 41t-23 40q26-14 49-30t43-35q-12-5-25-9t-25-7v0z m-197-30v149q34-13 66-48t54-88q-31-5-61-9t-59-4z m379-225h-129q-2 46-9 91t-20 90q18 6 38 12t41 15q34-46 54-99t25-109v0z m-677 180q-12-43-20-88t-9-91h-128q5 57 24 109t54 99q21-9 41-16t38-13z m49-256h173v-148q-34-1-70-5t-76-11q-12 40-19 81t-8 83v0z m-25-255q9-21 20-42t24-40q-26 13-49 30t-45 36q12 4 24 9t26 7z m-51 253q1-45 8-90t20-91q-20-6-40-12t-38-14q-33 46-53 99t-25 109l128-1v0z m2 348q21 19 44 35t47 29q-13-18-23-38t-20-42q-12 4-24 8t-24 8v0z m246-122v-147h-172q2 44 9 86t18 79q35-7 71-11t74-7v0z m-120 90q24 52 55 88t65 48v-148q-30 0-61 3t-59 9z m120-541v-150q-34 13-65 48t-55 89q30 6 60 9t60 4z" horiz-adv-x="1000" />

<glyph glyph-name="uniE93A-1" unicode="&#xe832;" d="M997 616q-1 25-19 43t-43 18h-870q-26 0-44-18t-18-44v-531q0-25 18-44t44-18h869q26 0 44 18t18 44z m-123-14l-374-234-374 234h748z m-794-424v365l257-160-257-205v0z m323 161l75-48q9-6 20-6t21 6l75 48 305-241h-800l304 241v0z m517 201v-362l-257 203 257 159v0z" horiz-adv-x="1000" />

<glyph glyph-name="uniE93D-1" unicode="&#xe833;" d="M846 622v0q0 18-15 33t-33 14h-103q-7 75-63 126t-132 52-132-52-63-127h-102q-19 0-34-14t-14-34l-26-671q-1-20 6-38t19-31q14-14 31-22t36-7h557q19 0 36 7t31 22q12 14 19 31t6 37l-24 674v0z m-346 158q48 0 85-32t43-80l-256 1q7 47 44 79t84 32v0z" horiz-adv-x="1000" />

<glyph glyph-name="uE1000-1" unicode="&#xe834;" d="M725 347q42 41 64 95t23 113q0 61-23 114-23 53-63 93t-93 63q-53 23-114 23-61 0-115-23-52-23-92-63t-64-93q-23-53-23-114 0-58 22-113t65-95q-59-29-108-77-49-47-83-106t-53-129q-19-70-19-143 0-18 13-30t30-13h855q18 0 31 13t12 30q-1 73-20 143-19 69-54 129t-83 106q-49 48-108 77v0z m-101 28l-4-1q-2-1-3-1t-3-1l-1-2q-23-12-47-18t-49-6q-43 0-81 17-38 15-66 44t-45 66-16 81 16 81 45 67 67 45 81 16q44 0 81-16 38-17 66-45t45-66q16-38 16-81 0-56-28-104t-74-76v0z m-230-85q29-14 60-21t64-7 63 7 61 21q52-17 97-51 44-35 78-82t56-104q22-57 27-118h-764q6 61 28 118 22 58 55 104t79 82q44 34 96 51z" horiz-adv-x="1000" />

<glyph glyph-name="uE930D-1" unicode="&#xe835;" d="M994 466q-6 16-17 26t-29 13l-275 40-122 250q-7 15-21 23t-30 9-30-9-21-23l-123-250-275-40q-16-3-28-13t-18-26-1-31 16-29l198-193-47-273q-2-13 1-25t12-22q12-15 32-19t37 5l247 131 247-130q6-3 13-4t13-2q13 0 24 5t19 15q8 10 12 22t1 25l-47 274 199 193q11 11 15 27t-2 31z" horiz-adv-x="1000" />

<glyph glyph-name="picture" unicode="&#xe836;" d="M856 518h-100l-124 150-214-150h-180q-52 0-90-39t-38-91v-160l-108 296q-10 38 22 52l680 248q36 10 50-24z m106-90q16 0 27-12t11-28v-472q0-16-11-28t-27-12h-724q-16 0-27 12t-11 28v472q0 16 11 28t27 12h724z m-56-452v162l-72 160-166-60-130-132-138 170-92-214v-86h598z" horiz-adv-x="1000" />

<glyph glyph-name="trash" unicode="&#xe837;" d="M286 439v-321q0-8-5-13t-13-5h-36q-8 0-13 5t-5 13v321q0 8 5 13t13 5h36q8 0 13-5t5-13z m143 0v-321q0-8-5-13t-13-5h-36q-8 0-13 5t-5 13v321q0 8 5 13t13 5h36q8 0 13-5t5-13z m142 0v-321q0-8-5-13t-12-5h-36q-8 0-13 5t-5 13v321q0 8 5 13t13 5h36q7 0 12-5t5-13z m72-404v529h-500v-529q0-12 4-22t8-15 6-5h464q2 0 6 5t8 15 4 22z m-375 601h250l-27 65q-4 5-9 6h-177q-6-1-10-6z m518-18v-36q0-8-5-13t-13-5h-54v-529q0-46-26-80t-63-34h-464q-37 0-63 33t-27 79v531h-53q-8 0-13 5t-5 13v36q0 8 5 13t13 5h172l39 93q9 21 31 35t44 15h178q22 0 44-15t30-35l39-93h173q8 0 13-5t5-13z" horiz-adv-x="785" />

<glyph glyph-name="search" unicode="&#xe838;" d="M643 386q0 103-74 176t-176 74-177-74-73-176 73-177 177-73 176 73 74 177z m286-465q0-29-22-50t-51-21-49 21l-191 191q-100-69-223-69-80 0-153 31t-125 84-84 125-31 153 31 152 84 126 125 84 153 31 152-31 126-84 84-126 31-152q0-123-69-223l191-191q21-21 21-51z" horiz-adv-x="928" />

<glyph glyph-name="picture-1" unicode="&#xe839;" d="M357 529q0-45-31-76t-76-32-76 32-31 76 31 75 76 32 76-32 31-75z m572-215v-250h-786v107l178 179 90-89 285 285z m53 393h-893q-7 0-12-5t-6-13v-678q0-8 6-13t12-5h893q7 0 13 5t5 13v678q0 7-5 13t-13 5z m89-18v-678q0-37-26-63t-63-27h-893q-36 0-63 27t-26 63v678q0 37 26 63t63 27h893q37 0 63-27t26-63z" horiz-adv-x="1071" />

<glyph glyph-name="layers-alt" unicode="&#xe83a;" d="M18 127l446-111 447 111v-111l-447-113-446 113v111z m0 224l446-112 447 112v-112l-447-112-446 112v112z m0 223l446-112 447 112v-112l-447-111-446 111v112z m0 223l446-112 447 112v-112l-447-111-446 111v112z" horiz-adv-x="928" />

<glyph glyph-name="video" unicode="&#xe83b;" d="M214-43v72q0 14-10 25t-25 10h-72q-14 0-25-10t-11-25v-72q0-14 11-25t25-11h72q14 0 25 11t10 25z m0 214v72q0 14-10 25t-25 11h-72q-14 0-25-11t-11-25v-72q0-14 11-25t25-10h72q14 0 25 10t10 25z m0 215v71q0 15-10 25t-25 11h-72q-14 0-25-11t-11-25v-71q0-15 11-25t25-11h72q14 0 25 11t10 25z m572-429v286q0 14-11 25t-25 11h-429q-14 0-25-11t-10-25v-286q0-14 10-25t25-11h429q15 0 25 11t11 25z m-572 643v71q0 15-10 26t-25 10h-72q-14 0-25-10t-11-26v-71q0-15 11-25t25-11h72q14 0 25 11t10 25z m786-643v72q0 14-11 25t-25 10h-71q-15 0-25-10t-11-25v-72q0-14 11-25t25-11h71q15 0 25 11t11 25z m-214 429v285q0 15-11 26t-25 10h-429q-14 0-25-10t-10-26v-285q0-15 10-25t25-11h429q15 0 25 11t11 25z m214-215v72q0 14-11 25t-25 11h-71q-15 0-25-11t-11-25v-72q0-14 11-25t25-10h71q15 0 25 10t11 25z m0 215v71q0 15-11 25t-25 11h-71q-15 0-25-11t-11-25v-71q0-15 11-25t25-11h71q15 0 25 11t11 25z m0 214v71q0 15-11 26t-25 10h-71q-15 0-25-10t-11-26v-71q0-15 11-25t25-11h71q15 0 25 11t11 25z m71 89v-750q0-37-26-63t-63-26h-893q-36 0-63 26t-26 63v750q0 37 26 63t63 27h893q37 0 63-27t26-63z" horiz-adv-x="1071" />

<glyph glyph-name="arrows-ccw" unicode="&#xe83c;" d="M186 140l116 116v-292l-276 16 88 86q-116 122-114 290t120 288q100 100 240 116l4-102q-100-16-172-88-88-88-90-213t84-217z m332 598l276-16-88-86q116-122 114-290t-120-288q-96-98-240-118l-2 104q98 16 170 88 88 88 90 213t-84 217l-114-116z" horiz-adv-x="820" />

<glyph glyph-name="magic" unicode="&#xe83d;" d="M664 526l164 163-60 60-164-164z m249 163q0-15-10-25l-717-718q-10-10-25-10t-25 10l-111 111q-10 10-10 25t10 25l718 718q10 10 25 10t25-10l110-111q10-10 10-25z m-753 106l54-16-54-17-17-55-17 55-55 17 55 16 17 55z m195-90l109-34-109-33-34-109-33 109-109 33 109 34 33 109z m519-267l55-17-55-16-17-55-17 55-54 16 54 17 17 55z m-357 357l54-16-54-17-17-55-17 55-54 17 54 16 17 55z" horiz-adv-x="928" />

<glyph glyph-name="ccw" unicode="&#xe83e;" d="M532 736q170 0 289-120t119-290-119-290-289-120q-142 0-252 88l70 74q84-60 182-60 126 0 216 90t90 218-90 218-215 90-215-87-92-211h142l-184-204-184 204h124q2 166 122 283t286 117z" horiz-adv-x="940" />

<glyph glyph-name="doc" unicode="&#xe83f;" d="M818 595q16-16 16-36v-521q0-65-46-111t-110-46h-522q-65 0-110 46t-46 111v625q0 65 46 110t110 46h417q22 0 37-15z m-110-36l-135 134v-56q0-32 23-55t55-23h57z m-30-574q21 0 36 16t15 37v469h-78q-53 0-92 38t-38 92v78h-365q-21 0-37-15t-15-37v-625q0-21 15-37t37-16h522z" horiz-adv-x="834" />

<glyph glyph-name="left-open" unicode="&#xe840;" d="M414-28l-364 364q-20 20-20 50t20 51l364 363q21 20 51 20t50-20l42-42q21-21 21-51t-21-50l-271-271 271-271q21-21 21-51t-21-50l-42-42q-21-20-50-20t-51 20z" horiz-adv-x="642" />

<glyph glyph-name="right-open" unicode="&#xe841;" d="M613 386q0-29-20-51l-364-363q-21-21-50-21t-51 21l-42 42q-21 21-21 51t21 50l271 271-271 270q-21 22-21 52t21 49l42 42q20 21 51 21t50-21l364-363q20-21 20-50z" horiz-adv-x="642" />

<glyph glyph-name="angle-right" unicode="&#xe842;" d="M332 314q0-7-6-13l-260-260q-5-5-12-5t-13 5l-28 28q-6 6-6 13t6 13l219 219-219 220q-6 5-6 12t6 13l28 28q5 6 13 6t12-6l260-260q6-5 6-13z" horiz-adv-x="357" />

<glyph glyph-name="right-big" unicode="&#xe843;" d="M821 314q0-30-20-50l-363-364q-22-20-51-20t-50 20l-42 42q-22 21-22 51t22 51l163 163h-393q-29 0-47 21t-18 51v71q0 30 18 51t47 20h393l-163 164q-22 21-22 51t22 50l42 42q21 21 50 21t51-21l363-363q20-20 20-51z" horiz-adv-x="857" />

<glyph glyph-name="left-big" unicode="&#xe844;" d="M857 350v-71q0-30-18-51t-47-21h-393l164-164q21-20 21-50t-21-50l-42-43q-21-20-50-20t-51 20l-364 364q-20 21-20 50t20 51l364 363q21 21 50 21t51-21l42-42q21-21 21-50t-21-51l-164-164h393q29 0 47-20t18-51z" horiz-adv-x="857" />

<glyph glyph-name="angle-left" unicode="&#xe845;" d="M350 546q0-7-6-12l-219-220 219-219q6-6 6-13t-6-13l-28-28q-5-5-12-5t-13 5l-260 260q-6 6-6 13t6 13l260 260q5 6 13 6t12-6l28-28q6-5 6-13z" horiz-adv-x="357" />

<glyph glyph-name="left-open-mini" unicode="&#xe846;" d="M252 180q26-26 0-48-26-26-48 0l-192 194q-24 24 0 50l192 194q22 26 48 0 26-22 0-48l-156-172z" horiz-adv-x="265" />

<glyph glyph-name="right-open-mini" unicode="&#xe847;" d="M13 180l158 170-158 172q-26 26 0 48 26 26 48 0l192-194q24-26 0-50l-192-194q-22-26-48 0-26 22 0 48z" horiz-adv-x="265" />

<glyph glyph-name="left-open-big" unicode="&#xe848;" d="M452-20q26-26 0-48-26-26-48 0l-392 394q-24 24 0 50l392 394q22 26 48 0 26-22 0-48l-358-372z" horiz-adv-x="465" />

<glyph glyph-name="right-open-big" unicode="&#xe849;" d="M13-20l358 370-358 372q-26 26 0 48 26 26 48 0l392-394q24-26 0-50l-392-394q-22-26-48 0-26 22 0 48z" horiz-adv-x="465" />

<glyph glyph-name="right" unicode="&#xe84a;" d="M350 680l380-330-380-330v192h-350v278h350v190z" horiz-adv-x="730" />

<glyph glyph-name="arrow-combo" unicode="&#xe84b;" d="M230 850l230-364h-460z m0-1000l-230 366h460z" horiz-adv-x="460" />

<glyph glyph-name="popup" unicode="&#xe84c;" d="M700 750q42 0 71-29t29-71v-400q0-40-29-70t-71-30h-400q-40 0-70 30t-30 70v402q0 40 29 69t71 29h400z m0-500v400h-400v-400h400z m-600 100v-300h300v-100h-300q-40 0-70 30t-30 70v300h100z" horiz-adv-x="800" />

<glyph glyph-name="palette" unicode="&#xe84d;" d="M857 622q72-48 101-110t20-104-35-48q-16-4-54 10t-80 10-80-46q-30-46-21-75t34-65 23-50q-2-26-36-63t-126-74-216-37q-186 0-291 101t-95 245q8 118 104 235t216 151q290 84 536-80z m-318-466q30 0 52 22t22 54-22 53-53 21-53-21-22-53 22-54 54-22z" horiz-adv-x="980" />

<glyph glyph-name="pencil-1" unicode="&#xe84e;" d="M795 731q37-36 35-82t-39-83l-46-46q4 1 9 35t-46 88q-50 44-86 43t-38-6l49 48q34 34 81 35t81-32z m-89-250l-492-493-210-51-4 4 55 210 493 490q6 2 22 5t38-3l-523-522-15-55 60-60 56 15 25 24 3 56-40 40 479 479 15-15q49-54 46-88t-8-36z" horiz-adv-x="830" />

<glyph glyph-name="cog" unicode="&#xe84f;" d="M760 350q0-72 80-122-12-40-34-82-70 18-136-44-54-58-34-136-40-20-84-36-46 82-132 82t-132-82q-44 16-84 36 20 80-34 135t-136 35q-14 26-34 82 82 52 82 132 0 72-82 124 20 56 34 82 74-18 136 44 54 56 34 136 42 22 84 34 46-80 132-80t132 80q42-12 84-34-20-78 34-136 66-62 136-44 22-42 34-82-80-50-80-124z m-340-182q76 0 129 53t53 129-53 130-129 54-129-54-53-130 53-129 129-53z" horiz-adv-x="840" />

<glyph glyph-name="login" unicode="&#xe850;" d="M800 800q42 0 71-29t29-71v-700q0-40-29-70t-71-30h-450q-40 0-69 30t-29 70v100h98v-100h450v700h-450v-150h-98v150q0 42 29 71t69 29h450z m-350-670v120h-450v150h450v120l200-194z" horiz-adv-x="900" />

<glyph glyph-name="logout" unicode="&#xe851;" d="M502 0v100h98v-100q0-40-29-70t-71-30h-400q-40 0-70 30t-30 70v700q0 42 30 71t70 29h400q42 0 71-29t29-71v-150h-98v150h-402v-700h402z m398 326l-198-196v120h-450v150h450v120z" horiz-adv-x="900" />

<glyph glyph-name="left" unicode="&#xe852;" d="M378 20l-378 330 378 330v-190h352v-278h-352v-192z" horiz-adv-x="730" />

<glyph glyph-name="equalizer" unicode="&#xe853;" d="M576 239v-112h-55v-167q0-23-17-40t-39-17-39 17-17 40v167h-56v112h56v503q0 24 17 39t38 16q24 0 41-16t16-39v-503h55z m335 335v-112h-55v-502q0-23-16-40t-40-17-40 17-16 40v502h-56v112h56v168q0 24 16 39t39 16 41-16 16-39v-168h55z m-670-112v-111h-55v-391q0-23-16-40t-39-17-40 17-17 40v391h-56v111h56v280q0 24 16 39t40 16 40-16 16-39v-280h55z" horiz-adv-x="928" />

<glyph glyph-name="down-open" unicode="&#xe854;" d="M899 457q0-29-21-50l-363-363q-21-22-51-22t-50 22l-363 363q-21 20-21 50t21 51l41 42q22 20 51 20t50-20l271-271 271 271q21 20 51 20t50-20l42-42q21-22 21-51z" horiz-adv-x="928" />

<glyph glyph-name="exclam" unicode="&#xe855;" d="M531-25c18 0 32 14 32 31v612l134-134c12-12 32-12 44 0s12 32 0 44l-188 188c-3 3-6 5-10 7-7 3-16 3-24 0-3-2-7-4-10-7 0 0 0 0 0 0l-187-188c-13-12-13-32 0-44s32-12 44 0l134 134v-612c0-17 14-31 31-31z" horiz-adv-x="1000" />

<glyph glyph-name="quotedbl" unicode="&#xe856;" d="M531 725c-17 0-31-14-31-31v-612l-134 134c-12 12-32 12-44 0s-12-32 0-44l187-188c0 0 0 0 0 0 3-3 7-5 10-7 8-3 17-3 24 0 4 2 7 4 10 7l188 188c12 12 12 32 0 44s-32 12-44 0l-134-134v612c0 17-14 31-32 31z" horiz-adv-x="1000" />

<glyph glyph-name="numbersign" unicode="&#xe857;" d="M125 381c0-4 1-8 2-12 2-3 4-7 7-9l0-1 188-187c12-13 32-13 44 0s12 32 0 44l-134 134h612c17 0 31 14 31 31s-14 32-31 32h-612l134 134c12 12 12 32 0 44s-32 12-44 0l-188-188c0 0 0 0 0 0-3-3-5-6-7-10-1-4-2-8-2-12v0 0z" horiz-adv-x="1000" />

<glyph glyph-name="dollar" unicode="&#xe858;" d="M125 381c0-17 14-31 31-31h612l-134-134c-12-12-12-32 0-44s32-12 44 0l188 187c3 3 5 7 7 10 1 4 2 8 2 12v0 0c0 4-1 8-2 12-2 4-4 7-7 10l-188 188c-12 12-32 12-44 0s-12-32 0-44l134-134h-612c-17 0-31-14-31-32z" horiz-adv-x="1000" />

<glyph glyph-name="percent" unicode="&#xe859;" d="M125 381c0-17 14-31 31-31s32 14 32 31v237l634-634c12-12 32-12 44 0s12 32 0 44l-634 635h237c17 0 31 14 31 31s-14 31-31 31h-313c-4 0-8-1-12-2-3-2-7-4-10-7 0 0 0 0 0 0 0 0 0 0 0 0-3-3-5-7-7-10-1-4-2-8-2-12v0-313z" horiz-adv-x="1000" />

<glyph glyph-name="ampersand" unicode="&#xe85a;" d="M134-16c12-12 32-12 44 0l635 634v-237c0-17 14-31 31-31s31 14 31 31v313 0c0 4-1 8-2 12-4 7-10 13-17 17-4 1-8 2-12 2h-313c-17 0-31-14-31-31s14-31 31-31h237l-634-635c-12-12-12-32 0-44z" horiz-adv-x="1000" />

<glyph glyph-name="hyphen" unicode="&#xe85b;" d="M125 381c0-17 14-31 31-31s32 14 32 31v237l580-580h-237c-17 0-31-14-31-32s14-31 31-31h313c4 0 8 1 12 2 7 4 13 10 17 17 1 4 2 8 2 12v0 313c0 17-14 31-31 31s-31-14-31-31v-237l-581 581h237c17 0 31 14 31 31s-14 31-31 31h-313c-4 0-8-1-12-2-3-2-7-4-10-7 0 0 0 0 0 0 0 0 0 0 0 0-3-3-5-7-7-10-1-4-2-8-2-12v0-313z" horiz-adv-x="1000" />

<glyph glyph-name="period" unicode="&#xe85c;" d="M156 350c-17 0-31-14-31-31v-313 0c0-4 1-8 2-12 2-3 4-7 7-10 0 0 0 0 0 0 0 0 0 0 0 0 3-3 7-5 10-7 4-1 8-2 12-2h313c17 0 31 14 31 31s-14 32-31 32h-237l581 580v-237c0-17 14-31 31-31s31 14 31 31v313 0c0 4-1 8-2 12-4 7-10 13-17 17-4 1-8 2-12 2h-313c-17 0-31-14-31-31s14-31 31-31h237l-580-581v237c0 17-14 31-32 31z" horiz-adv-x="1000" />

<glyph glyph-name="slash" unicode="&#xe85d;" d="M928 778c-12 13-32 13-44 0l-259-259v175c0 17-14 31-31 31s-31-14-31-31v-250 0c0-4 0-8 2-12 1-4 4-7 6-10l1 0c0 0 0 0 0 0 3-3 6-6 10-7 4-2 8-2 12-2h250c17 0 31 14 31 31s-14 31-31 31h-175l259 259c13 12 13 32 0 44z m-856-856c12-13 32-13 44 0l259 259v-175c0-17 14-31 31-31s32 14 32 31v250 0c0 4-1 8-3 12-3 8-9 14-17 17-4 2-8 3-12 3h-250c-17 0-31-14-31-32s14-31 31-31h175l-259-259c-13-12-13-32 0-44z" horiz-adv-x="1000" />

<glyph glyph-name="zero" unicode="&#xe85e;" d="M935 768c-3 8-9 14-17 17-4 2-8 3-12 3h-250c-17 0-31-14-31-32s14-31 31-31h175l-259-259c-13-12-13-32 0-44s32-12 44 0l259 259v-175c0-17 14-31 31-31s32 14 32 31v250 0c0 4-1 8-3 12z m-841-543c-17 0-31-14-31-31v-250 0c0-4 0-8 2-12 1-4 4-7 6-10 1 0 1 0 1 0 0 0 0 0 0-1 3-2 6-5 10-6 4-2 8-3 12-3h250c17 0 31 14 31 32s-14 31-31 31h-175l259 259c13 12 13 32 0 44s-32 13-44 0l-259-259v175c0 17-14 31-31 31z" horiz-adv-x="1000" />

<glyph glyph-name="one" unicode="&#xe85f;" d="M998 331c-2 4-4 7-7 10l-125 125c-12 12-32 12-44 0s-13-32 0-44l71-72h-330v331l71-72c12-12 32-12 44 0s13 32 0 44l-125 125c0 0 0 1 0 1-3 2-6 5-10 6-4 2-8 3-12 3h0c-4 0-8-1-12-3-3-1-7-4-9-6l-1-1-125-125c-12-12-12-32 0-44s32-12 44 0l72 72v-331h-331l72 72c12 12 12 32 0 44s-32 12-44 0l-125-125c0 0 0 0-1 0-2-3-5-7-6-10-2-4-2-8-2-12v0c0-4 0-8 2-12 1-4 4-7 6-10l1 0 125-125c12-13 32-13 44 0s12 32 0 44l-72 72h331v-331l-72 71c-12 13-32 13-44 0s-12-32 0-44l125-125c3-3 7-5 10-7 4-1 8-2 12-2h0c4 0 8 1 12 2 4 2 7 4 10 7l125 125c13 12 13 32 0 44s-32 13-44 0l-71-71v331h330l-71-72c-12-12-12-32 0-44s32-12 44 0l125 125c3 3 5 6 7 10 1 4 2 8 2 12v0c0 4-1 8-2 12z" horiz-adv-x="1000" />

<glyph glyph-name="two" unicode="&#xe860;" d="M351 219l180 180 181-180c12-12 32-12 44 0s12 32 0 44l-203 203c-6 6-14 9-22 9s-16-3-22-9l-203-203c-12-12-12-32 0-44s32-12 45 0z" horiz-adv-x="1000" />

<glyph glyph-name="three" unicode="&#xe861;" d="M712 419l-181-181-180 181c-13 12-32 12-45 0s-12-32 0-44l203-203c6-6 14-9 22-9 8 0 16 3 22 9l203 203c12 12 12 32 0 44s-32 12-44 0z" horiz-adv-x="1000" />

<glyph glyph-name="four" unicode="&#xe862;" d="M384 297l203-203c12-12 32-12 44 0s12 32 0 44l-180 181 180 180c12 13 12 32 0 45s-32 12-44 0l-203-203c-6-6-9-14-9-22s3-16 9-22z" horiz-adv-x="1000" />

<glyph glyph-name="five" unicode="&#xe863;" d="M431 94c12-12 32-12 44 0l203 203c6 6 9 14 9 22 0 8-3 16-9 22l-203 203c-12 12-32 12-44 0s-12-32 0-45l181-180-181-181c-12-12-12-32 0-44z" horiz-adv-x="1000" />

<glyph glyph-name="six" unicode="&#xe864;" d="M733 406l-209 185c-6 6-15 9-23 9-8 0-16-3-22-9l-210-185c-12-12-12-32 0-45s33-12 45 0l187 166 187-166c13-12 33-12 45 0 12 13 12 33 0 45z m-209-39c-6 6-15 9-23 9-8 0-16-3-22-9l-210-185c-12-12-12-32 0-45s33-12 45 0l187 166 187-166c13-12 33-12 45 0s12 33 0 45z" horiz-adv-x="1000" />

<glyph glyph-name="seven" unicode="&#xe865;" d="M686 339l-187-166-187 166c-13 12-33 12-45 0s-12-33 0-45l209-185c7-6 15-9 23-9 8 0 16 3 23 9l209 185c12 12 12 32 0 45s-33 12-45 0z m45 224c-13 12-33 12-45 0l-187-166-187 166c-13 12-33 12-45 0s-12-32 0-45l209-185c6-6 15-9 23-9 8 0 16 3 22 9l210 185c12 13 12 32 0 45z" horiz-adv-x="1000" />

<glyph glyph-name="eight" unicode="&#xe866;" d="M259 329l185-210c12-12 32-12 45 0s12 33 0 45l-166 187 166 187c12 13 12 33 0 45s-33 12-45 0l-185-209c-6-6-9-15-9-23 0-8 3-16 9-22z m454 254c-12 12-32 12-45 0l-185-209c-6-6-9-15-9-23 0-8 3-16 9-22l185-210c13-12 32-12 45 0s12 33 0 45l-166 187 166 187c12 13 12 33 0 45z" horiz-adv-x="1000" />

<glyph glyph-name="nine" unicode="&#xe867;" d="M741 372l-185 209c-12 12-32 12-45 0s-12-33 0-45l166-187-166-187c-12-13-12-33 0-45s33-12 45 0l185 209c6 7 9 15 9 23 0 8-3 16-9 23z m-454-255c13-12 32-12 45 0l185 209c6 6 9 15 9 23 0 8-3 16-9 22l-185 210c-12 12-32 12-45 0s-12-33 0-45l166-187-166-187c-12-13-12-33 0-45z" horiz-adv-x="1000" />

<glyph glyph-name="colon" unicode="&#xe868;" d="M553 466c-6 6-14 9-22 9s-16-3-22-9l-203-203c-12-12-12-32 0-44s32-12 45 0l180 180 181-180c12-12 32-12 44 0s12 32 0 44z m-20 317c-257 0-466-209-466-466s209-467 466-467 467 209 467 467-209 466-467 466z m0-871c-223 0-404 182-404 405s181 404 404 404 405-181 405-404-182-405-405-405z" horiz-adv-x="1000" />

<glyph glyph-name="A" unicode="&#xe869;" d="M772 340l-185 209c-12 13-32 13-44 0s-13-32 0-44l165-187-165-188c-13-12-13-32 0-44s32-12 44 0l185 209c6 6 9 14 9 23 0 8-3 16-9 22z m-215-22c0 8-3 16-9 22l-185 209c-12 13-32 13-44 0s-13-32 0-44l165-187-165-188c-13-12-13-32 0-44s32-12 44 0l185 209c6 6 9 14 9 23z m-26 470c-259 0-468-210-468-469s209-469 468-469 469 210 469 469-210 469-469 469z m0-876c-224 0-406 183-406 407 0 224 182 406 406 406 224 0 407-182 407-406s-183-407-407-407z" horiz-adv-x="1000" />

<glyph glyph-name="B" unicode="&#xe86a;" d="M281 225l437 0c9 0 17 4 22 11l0 0c12 13 12 35 0 49l-218 242c-13 14-32 14-44 0-1 0-1-1-1-1l-218-241c-13-14-13-36 0-49 0 0 0 0 0 0 6-7 13-11 22-11z" horiz-adv-x="1000" />

<glyph glyph-name="C" unicode="&#xe86b;" d="M521 235c1 1 1 1 1 1l218 242c12 13 12 35 0 49 0 0 0 0 0 0-6 6-14 11-22 11h-437c-9 0-17-5-22-11l0 0c-13-14-13-36 0-49l218-243c12-13 32-13 44 0z" horiz-adv-x="1000" />

<glyph glyph-name="D" unicode="&#xe86c;" d="M565 592l-242-219c-14-12-14-32 0-44 0-1 1-1 1-1l241-218c14-12 36-12 49 0 0 0 0 0 0 0 7 6 11 14 11 22v437c0 9-4 17-11 22l0 0c-13 13-35 13-49 1z" horiz-adv-x="1000" />

<glyph glyph-name="E" unicode="&#xe86d;" d="M434 109l239 219c14 12 14 32 0 44 0 0-1 0-1 1l-238 219c-13 12-35 12-48 0 0-1 0-1-1-1-6-6-10-13-10-22v-438c0-9 4-17 11-22l0 0c13-13 35-13 48 0z" horiz-adv-x="1000" />

<glyph glyph-name="F" unicode="&#xe86e;" d="M531 788c-259 0-468-210-468-469s209-469 468-469 469 210 469 469-210 469-469 469z m0-876c-224 0-406 183-406 407 0 224 182 406 406 406 224 0 407-182 407-406s-183-407-407-407z m19 553c-11 13-28 13-39 0 0-1 0-1 0-1l-191-241c-11-14-11-36 0-50 0 0 0 0 0 0 5-6 12-10 20-10h382c7 0 14 4 19 11l0-1c11 14 11 36 0 50z" horiz-adv-x="1000" />

<glyph glyph-name="G" unicode="&#xe86f;" d="M531 788c-259 0-468-210-468-469s209-469 468-469 469 210 469 469-210 469-469 469z m0-876c-224 0-406 183-406 407 0 224 182 406 406 406 224 0 407-182 407-406s-183-407-407-407z m211 490c-5 6-12 11-20 11h-382c-7 0-14-5-19-11l0 0c-11-14-11-36 0-49l191-243c11-13 28-13 38 0 1 1 1 1 1 1l191 242c11 13 11 35 0 49 0 0 0 0 0 0z" horiz-adv-x="1000" />

<glyph glyph-name="H" unicode="&#xe870;" d="M531 788c-259 0-468-210-468-469s209-469 468-469 469 210 469 469-210 469-469 469z m0-876c-224 0-406 183-406 407 0 224 182 406 406 406 224 0 407-182 407-406s-183-407-407-407z m83 618c-13 11-35 11-49 0l-242-191c-14-11-14-28 0-39 0 0 1 0 1 0l241-191c14-11 36-11 49 0 0 0 0 0 0 0 7 5 11 12 11 19v382c0 8-4 15-11 20z" horiz-adv-x="1000" />

<glyph glyph-name="I" unicode="&#xe871;" d="M531 788c-259 0-468-210-468-469s209-469 468-469 469 210 469 469-210 469-469 469z m0-876c-224 0-406 183-406 407 0 224 182 406 406 406 224 0 407-182 407-406s-183-407-407-407z m208 427l-241 191c-14 11-36 11-50 0 0 0 0 0 0 0-6-5-10-12-10-20v-382c0-7 4-14 11-19l-1 0c14-11 36-11 50 0l242 191c13 11 13 28 0 39-1 0-1 0-1 0z" horiz-adv-x="1000" />

<glyph glyph-name="J" unicode="&#xe872;" d="M134 359l188-187c12-13 32-13 44 0s12 32 0 44l-134 134h456c125 0 187-115 187-219 0-17 14-31 31-31s32 14 32 31c0 138-63 282-250 282h-456l134 134c12 12 12 32 0 44s-32 12-44 0l-188-188c-12-12-12-32 0-44z" horiz-adv-x="1000" />

<glyph glyph-name="K" unicode="&#xe873;" d="M281 288h500c18 0 32 14 32 31s-14 31-32 31h-500c-17 0-31-14-31-31s14-31 31-31z" horiz-adv-x="1000" />

<glyph glyph-name="L" unicode="&#xe874;" d="M281 288h219v-219c0-17 14-31 31-31s32 14 32 31v219h218c18 0 32 14 32 31s-14 31-32 31h-218v219c0 17-14 31-32 31s-31-14-31-31v-219h-219c-17 0-31-14-31-31s14-31 31-31z" horiz-adv-x="1000" />

<glyph glyph-name="M" unicode="&#xe875;" d="M314 102c12-13 32-13 44 0l173 173 173-173c12-13 32-13 44 0s13 32 0 44l-173 173 173 173c13 12 13 32 0 44s-32 12-44 0l-173-173-173 173c-12 12-32 12-44 0s-12-32 0-44l173-173-173-173c-12-12-12-32 0-44z" horiz-adv-x="1000" />

<glyph glyph-name="N" unicode="&#xe876;" d="M431 50c1-1 2-2 3-3 2-1 4-1 6-2 3-1 5-2 7-3 3-1 5-1 8-1 3-1 7-1 10 0 2 0 3 0 4 1 5 1 9 3 13 5 0 0 1 1 2 1 2 2 5 3 7 6 2 1 2 4 4 6 0 0 0 0 0 0l372 597c14 20 8 47-12 60s-48 8-61-12l-344-552-190 185c-18 17-46 16-62-2-16-18-15-46 2-62l229-223c1 0 1 0 2-1z" horiz-adv-x="1000" />

<glyph glyph-name="U" unicode="&#xe877;" d="M594 850c-225 0-406-182-406-406 0-97 33-185 90-255l-269-269c-17-17-17-44 0-61s44-17 61 0l269 269c70-57 158-90 255-90 224 0 406 181 406 406s-182 406-406 406z m0-750c-190 0-344 154-344 344s154 344 344 344 344-155 344-344-155-344-344-344z" horiz-adv-x="1000" />

<glyph glyph-name="V" unicode="&#xe878;" d="M813 725h-625c-35 0-63-28-63-62v-625c0-35 28-63 63-63h625c34 0 62 28 62 63v625c0 34-28 62-62 62z m0-687h-625v625h625v-625z" horiz-adv-x="1000" />

<glyph glyph-name="W" unicode="&#xe879;" d="M813 725h-625c-35 0-63-28-63-62v-625c0-35 28-63 63-63h625c34 0 62 28 62 63v625c0 34-28 62-62 62z m0-687h-625v625h625v-625z m-438 125h250c35 0 63 28 63 62v250c0 35-28 63-63 63h-250c-34 0-62-28-62-63v-250c0-34 28-62 62-62z" horiz-adv-x="1000" />

<glyph glyph-name="X" unicode="&#xe87a;" d="M250 538v-438c0-34 28-62 63-62h437c35 0 63 28 63 62v438c0 34-28 62-63 62h-437c-35 0-63-28-63-62z m500-438h-437v438h437v-438z m-344 188h250c18 0 32 14 32 31s-14 31-32 31h-250c-17 0-31-14-31-31s14-31 31-31z" horiz-adv-x="1000" />

<glyph glyph-name="Y" unicode="&#xe87b;" d="M250 538v-438c0-34 28-62 63-62h437c35 0 63 28 63 62v438c0 34-28 62-63 62h-437c-35 0-63-28-63-62z m500-438h-437v438h437v-438z m-344 188h94v-94c0-17 14-31 31-31s32 14 32 31v94h93c18 0 32 14 32 31s-14 31-32 31h-93v94c0 17-14 31-32 31s-31-14-31-31v-94h-94c-17 0-31-14-31-31s14-31 31-31z" horiz-adv-x="1000" />

<glyph glyph-name="Z" unicode="&#xe87c;" d="M813 38h-625v625h461l39 62h-500c-35 0-63-28-63-62v-625c0-35 28-63 63-63h625c34 0 62 28 62 63v412l-62-100v-312z m105 742c-8 5-16 8-24 8-14 0-28-7-37-20l-340-490-131 150c-18 16-45 15-62-3s-15-45 3-62l158-180c1-2 2-3 3-4l4-5c1 0 2 0 2-1 1-1 2-2 3-3 3-2 6-3 9-4 1 0 1-1 2-1 4-1 9-2 13-2 0 0 1 0 1 0 12 0 24 4 32 14 2 1 2 3 4 5l0 1 372 537c14 20 8 47-12 60z" horiz-adv-x="1000" />

<glyph glyph-name="bracketleft" unicode="&#xe87d;" d="M500 725c-207 0-375-168-375-375s168-375 375-375 375 168 375 375-168 375-375 375z m0-687c-172 0-312 140-312 312s140 313 312 313 313-141 313-313-141-312-313-312z" horiz-adv-x="1000" />

<glyph glyph-name="backslash" unicode="&#xe87e;" d="M500 725c-207 0-375-168-375-375s168-375 375-375 375 168 375 375-168 375-375 375z m0-687c-172 0-312 140-312 312s140 313 312 313 313-141 313-313-141-312-313-312z m-187 312c0-103 84-187 187-187s188 84 188 187-84 188-188 188-187-84-187-188z" horiz-adv-x="1000" />

<glyph glyph-name="bracketright" unicode="&#xe87f;" d="M500 850c-276 0-500-224-500-500s224-500 500-500 500 224 500 500-224 500-500 500z m0-938c-241 0-437 197-437 438s196 438 437 438 438-197 438-438-197-438-438-438z m125 626h-250c-34 0-62-28-62-63v-250c0-34 28-62 62-62h250c35 0 63 28 63 62v250c0 35-28 63-63 63z" horiz-adv-x="1000" />

<glyph glyph-name="asciicircum" unicode="&#xe880;" d="M625 163c35 0 63 28 63 62v250c0 35-28 63-63 63h-250c-34 0-62-28-62-63v-250c0-34 28-62 62-62h250z" horiz-adv-x="1000" />

<glyph glyph-name="underscore" unicode="&#xe881;" d="M500-150c276 0 500 224 500 500s-224 500-500 500-500-224-500-500 224-500 500-500z m0 938c241 0 438-197 438-438s-197-438-438-438-437 197-437 438 196 438 437 438z m-125-625c35 0 63 28 63 62v250c0 35-28 63-63 63s-62-28-62-63v-250c0-34 28-62 62-62z m250 0c35 0 63 28 63 62v250c0 35-28 63-63 63s-62-28-62-63v-250c0-34 28-62 62-62z" horiz-adv-x="1000" />

<glyph glyph-name="grave" unicode="&#xe882;" d="M375 538c-34 0-62-28-62-63v-250c0-34 28-62 62-62s63 28 63 62v250c0 35-28 63-63 63z m188-313c0-34 28-62 62-62s63 28 63 62v250c0 35-28 63-63 63s-62-28-62-63v-250z" horiz-adv-x="1000" />

<glyph glyph-name="a" unicode="&#xe883;" d="M219 350h562c18 0 32 14 32 31s-14 32-32 32h-562c-17 0-31-14-31-32s14-31 31-31z m0 188h562c18 0 32 14 32 31s-14 31-32 31h-562c-17 0-31-14-31-31s14-31 31-31z m0-375h562c18 0 32 14 32 31s-14 31-32 31h-562c-17 0-31-14-31-31s14-31 31-31z" horiz-adv-x="1000" />

<glyph glyph-name="b" unicode="&#xe884;" d="M938 788h-813c-34 0-62-28-62-63v-813c0-34 28-62 62-62h813c34 0 62 28 62 62v813c0 35-28 63-62 63z m0-876h-813v813h813v-813z m-657 376h500c18 0 32 14 32 31s-14 31-32 31h-500c-17 0-31-14-31-31s14-31 31-31z m0 187h500c18 0 32 14 32 31s-14 32-32 32h-500c-17 0-31-14-31-32s14-31 31-31z m0-375h500c18 0 32 14 32 31s-14 32-32 32h-500c-17 0-31-14-31-32s14-31 31-31z" horiz-adv-x="1000" />

<glyph glyph-name="i" unicode="&#xe885;" d="M125-25h63v-63c0-34 28-62 62-62h625c35 0 63 28 63 62v751c0 34-28 62-63 62h-62v63c0 34-28 62-63 62h-625c-34 0-62-28-62-62v-750c0-35 28-63 62-63z m625 63h-625v750h625v-750z m125 625v-751h-625v63h500c35 0 63 28 63 63v625h62z m-562-32c0-17 14-31 31-31h312c18 0 32 14 32 31s-14 32-32 32h-312c-17 0-31-14-31-32z m-94-218h437c18 0 32 14 32 31s-14 31-32 31h-437c-17 0-31-14-31-31s14-31 31-31z m0-125h437c18 0 32 14 32 31s-14 31-32 31h-437c-17 0-31-14-31-31s14-31 31-31z m0-125h437c18 0 32 14 32 31s-14 31-32 31h-437c-17 0-31-14-31-31s14-31 31-31z" horiz-adv-x="1000" />

<glyph glyph-name="j" unicode="&#xe886;" d="M941-91l-65 198-531 530-32-33-100-99 530-531z m-817 684l133 133-66 65c-36 37-96 37-132 0-37-36-37-96 0-132z" horiz-adv-x="1000" />

<glyph glyph-name="k" unicode="&#xe887;" d="M644 93l169-55-56 168-321 321-113-113z m-387 388l112 112-82 83c-31 31-82 31-113 0s-31-82 0-113z m681 369h-875c-35 0-63-28-63-62v-876c0-34 28-62 63-62h875c34 0 62 28 62 62v876c0 34-28 62-62 62z m0-938h-875v876h875v-876z" horiz-adv-x="1000" />

<glyph glyph-name="l" unicode="&#xe888;" d="M662 188l-56 169-321 321-113-113 322-321z m-639 639c-31-31-31-82 0-113l83-82 113 112-83 83c-31 31-82 31-113 0z m915-164h-444l63-63h381v-688h-688v381l-62 63v-444c0-34 28-62 62-62h688c34 0 62 28 62 62v688c0 35-28 63-62 63z" horiz-adv-x="1000" />

<glyph glyph-name="m" unicode="&#xe889;" d="M938 663h-283c-34 0-74-18-92-63 0 0-9-57-63-62h-437c-35 0-63-27-63-62v-564c0-34 28-62 63-62h875c34 0 62 28 62 62v501 63 124c0 35-28 63-62 63z m0-187l0-63v-501h-875v563h437c2 0 4 0 6 0 59 6 95 47 112 89 16 41 44 36 44 36h276v-124z" horiz-adv-x="1000" />

<glyph glyph-name="n" unicode="&#xe88a;" d="M1000 539v124c0 34-28 62-62 62h-313c-34 0-62-28-62-62 0 0-9-58-63-63h-437c-35 0-63-27-63-61v-64h1000v64z m-937-689h875c34 0 62 28 62 62v501h-1000v-501c0-34 28-62 63-62z m0 500h875v-438h-875v438z" horiz-adv-x="1000" />

<glyph glyph-name="o" unicode="&#xe88b;" d="M938 663h-220c-35 0-74-18-93-63 0 0-8-57-62-62h-438c-34 0-62-27-62-62v-564c0-34 28-62 62-62h813c34 0 62 28 62 62v501 63 124c0 35-28 63-62 63z m0-187l0-63v-501h-813v563h438c2 0 3 0 5 0 59 6 95 47 112 89 16 41 45 36 45 36h213v-124z m-250-251h-125v125c0 17-14 31-32 31s-31-14-31-31v-125h-125c-17 0-31-14-31-31s14-31 31-31h125v-125c0-18 14-32 31-32s32 14 32 32v125h125c17 0 31 14 31 31s-14 31-31 31z" horiz-adv-x="1000" />

<glyph glyph-name="p" unicode="&#xe88c;" d="M500 850c-276 0-500-224-500-500s224-500 500-500 500 224 500 500-224 500-500 500z m0-938c-241 0-437 197-437 438s196 438 437 438 438-197 438-438-197-438-438-438z m0 563c-34 0-62-28-62-62v-313c0-34 28-62 62-62s63 28 63 62v313c0 34-28 62-63 62z m-62 124c0-34 28-62 62-62s63 28 63 62-28 63-63 63-62-28-62-63z" horiz-adv-x="1000" />

<glyph glyph-name="q" unicode="&#xe88d;" d="M725 832c-11 11-27 18-44 18h-362c-17 0-33-7-44-18l-257-257c-11-11-18-27-18-44v-362c0-17 7-33 18-44l257-257c11-11 27-18 44-18h362c17 0 33 7 44 18l257 257c11 11 18 27 18 44v362c0 17-7 33-18 44z m213-663l-257-257h-362l-256 257v362l256 257h362l257-257v-362z m-438 494c-34 0-62-28-62-63v-312c0-35 28-63 62-63s63 28 63 63v312c0 35-28 63-63 63z m-62-563c0-34 28-62 62-62s63 28 63 62-28 63-63 63-62-28-62-63z" horiz-adv-x="1000" />

<glyph glyph-name="r" unicode="&#xe88e;" d="M500 850c-276 0-500-224-500-500s224-500 500-500 500 224 500 500-224 500-500 500z m0-938c-241 0-437 197-437 438s196 438 437 438 438-197 438-438-197-438-438-438z m0 751c-34 0-62-28-62-63v-312c0-35 28-63 62-63s63 28 63 63v312c0 35-28 63-63 63z m-62-562c0-34 28-62 62-62s63 28 63 62-28 63-63 63-62-28-62-63z" horiz-adv-x="1000" />

<glyph glyph-name="s" unicode="&#xe88f;" d="M989-58l-434 812c-11 21-32 34-55 34h0c-23 0-44-13-55-33l-436-813c-10-19-9-43 2-62 11-18 32-30 53-30h870c22 0 42 11 53 30 12 19 12 43 2 62z m-925-30l436 813 434-813h-870z m374 500v-188c0-34 28-62 62-62s63 28 63 62v188c0 34-28 62-63 62s-62-28-62-62z m0-374c0-35 28-63 62-63s63 28 63 63-28 62-63 62-62-28-62-62z" horiz-adv-x="1000" />

<glyph glyph-name="t" unicode="&#xe890;" d="M500 850c-276 0-500-224-500-500s224-500 500-500 500 224 500 500-224 500-500 500z m0-938c-241 0-437 197-437 438s196 438 437 438 438-197 438-438-197-438-438-438z m-70 125c0-36 29-65 65-65s64 29 64 65v0 0c0 35-29 64-64 64s-65-29-65-64v0z m65 688c-121 0-250-88-250-251 0-35 28-63 62-63s63 28 63 63c0 87 65 126 125 126 47 0 125-14 125-105 0-33-9-71-72-106-43-23-116-85-116-164 0-34 28-62 63-62s62 28 62 62c0 12 25 40 51 55 91 50 137 122 137 215 0 159-126 230-250 230z" horiz-adv-x="1000" />

<glyph glyph-name="u" unicode="&#xe891;" d="M430 37c0-36 29-65 65-65s64 29 64 65v0 0c0 35-29 64-64 64s-65-29-65-64v0z m178 243c91 50 137 122 137 215 0 159-126 230-250 230-121 0-250-88-250-251 0-35 28-63 62-63s63 28 63 63c0 87 65 126 125 126 47 0 125-14 125-105 0-33-9-71-72-106-43-23-116-85-116-164 0-34 28-62 63-62s62 28 62 62c0 12 25 40 51 55z" horiz-adv-x="1000" />

<glyph glyph-name="v" unicode="&#xe892;" d="M59-68c5-11 17-18 29-18 89 0 165 22 251 72 42-6 125-14 161-14 274 0 496 182 496 407s-222 407-496 407-496-182-496-407c0-106 51-208 141-284-21-46-48-90-81-130-8-9-10-22-5-33z m7 447c0 190 195 345 434 345s434-155 434-345-195-345-434-345c-36 0-129 10-161 16-7 1-15 0-22-4-58-36-109-56-163-65 23 36 43 73 58 112 5 13 1 28-11 37-87 66-135 154-135 249z" horiz-adv-x="1000" />

<glyph glyph-name="braceright" unicode="&#xe893;" d="M533 783c-119 0-239-45-330-136-182-183-182-478 0-660 92-91 211-137 330-137s239 46 330 137c183 182 183 477 0 660-91 91-210 136-330 136z m286-752c-76-76-178-119-286-119-108 0-209 43-285 119-77 76-119 178-119 286s42 209 119 286c76 76 177 118 285 118 108 0 210-42 286-118 77-77 119-178 119-286s-43-210-119-286z m-100 319l-156 0v219c0 17-14 31-32 31s-31-14-31-31v-250 0 0c0-17 14-31 31-31h188c17 0 31 14 31 31s-14 31-31 31z" horiz-adv-x="1000" />

<glyph glyph-name="asciitilde" unicode="&#xe894;" d="M500 850c-173 0-312-142-312-317v-58h-63c-34 0-62-28-62-62v-501c0-34 28-62 62-62h750c35 0 63 28 63 62v501c0 34-28 62-63 62h-62v58c0 175-140 317-313 317z m-250-317c0 140 112 255 250 255s250-115 250-255v-58h-500v58z m625-621h-750v501h750v-501z m-250 251c0 69-56 125-125 125s-125-56-125-125 56-125 125-125 125 55 125 125z m-125-63c-34 0-62 28-62 63s28 62 62 62 63-28 63-62-29-63-63-63z" horiz-adv-x="1000" />

<glyph glyph-name="uniE000" unicode="&#xe895;" d="M938-88l0 501c0 34-28 62-63 62h-625l0 27c0 168 104 286 253 286 109 0 206-63 254-164 7-16 26-22 41-15 16 7 23 26 15 42-58 123-176 199-310 199-183 0-315-147-315-348l-1-27h-62c-34 0-62-28-62-62v-501c0-34 28-62 62-62h750c35 0 63 28 63 62z m-813 501h750v-501h-750v501z m375-125c-69 0-125-56-125-125s56-125 125-125 125 55 125 125-56 125-125 125z m0-188c-34 0-62 28-62 63s28 62 62 62 63-28 63-62-29-63-63-63z" horiz-adv-x="1000" />

<glyph glyph-name="uniE001" unicode="&#xe896;" d="M344 69c0 18-4 36-12 53-21 44-65 72-113 72-69 0-125-56-125-125 0-13 2-24 5-35 21-35 50-64 85-85 11-3 22-5 35-5 69 0 125 56 125 125z m-125 62c24 0 46-14 56-36 4-8 6-17 6-26 0-35-28-63-62-63s-63 28-63 63 28 62 63 62z m750 719l-135 0c-8 0-15-3-21-7l-442-374c-21 4-40 6-58 6-173 0-313-140-313-312s140-313 313-313 312 140 312 313c0 32-5 65-16 96l96 62c8 6 14 16 14 26v114l119 6c15 1 28 13 29 29l11 120 104 50c11 5 18 16 18 28v125c0 17-14 31-31 31z m-31-137l-102-48c-10-5-17-15-18-26l-11-111-121-6c-17-1-30-15-30-31v-127l-102-66c-12-8-17-24-11-38 13-32 20-64 20-97 0-138-113-251-250-251-48 0-92 14-129 37-35 21-64 50-85 85-23 37-36 81-36 129 0 137 112 250 250 250 18 0 37-3 59-8 9-3 20 0 27 6l446 377h93v-75z" horiz-adv-x="1000" />

<glyph glyph-name="uniE002" unicode="&#xe897;" d="M813 350c-3 0-5-1-7-1 4 21 7 42 7 64 0 172-140 312-313 312s-312-140-312-312c0-2 0-3 0-4-106-15-188-105-188-215 0-110 82-201 188-216v-3h625c103 0 187 84 187 188s-84 187-187 187z m0-312h-606c-3 1-7 2-11 2-76 11-133 77-133 154 0 77 57 143 134 154 31 4 54 31 53 62 0 2 0 4 0 6 2 136 113 247 250 247 138 0 250-113 250-250 0-17-2-34-5-51-4-19 1-38 13-53 12-14 30-22 48-22 1 0 2 0 2 0 2 0 5 0 7 1 68-2 123-57 123-125 0-69-57-125-125-125z" horiz-adv-x="1000" />

<glyph glyph-name="uniE003" unicode="&#xe898;" d="M814 350c-3 0-5 0-8 0 4 21 7 42 7 63 0 172-141 312-313 312-172 0-312-139-313-309 0 0 1-7 1-7v0c-107-15-188-108-188-215 0-109 79-203 188-219h156c17 0 31 14 31 31s-14 32-31 32l-152-1c-73 11-129 80-129 157 0 77 57 143 134 154l27 3c15 3 26 16 26 31l0 34c0 136 112 247 250 247 138 0 250-113 250-250 0-17-2-34-5-51l-8-40c-2-10 1-20 7-27 7-8 17-12 27-10 1 0 21 3 43 3 68 0 124-56 124-125 0-69-57-125-125-125h-219c-88 0-94 52-94 62v207l74-73c12-13 32-13 44 0s12 32 0 44l-126 125c-6 7-14 10-22 10 0 0-1 0-1 0-9 0-17-4-23-10l-126-126c-12-12-12-32 0-44s32-12 44 0l74 73v-206c0-43 32-125 156-125h219c103 0 187 84 187 188s-83 187-186 187z" horiz-adv-x="1000" />

<glyph glyph-name="uniE004" unicode="&#xe899;" d="M818 350c58 134 22 219-7 260-45 63-126 97-197 83-124-23-176-107-176-280v-145l-73 72c-12 12-32 12-44 0s-12-32 0-44l126-126c6-6 14-9 23-9 8 0 16 3 22 9l127 127c12 12 12 32 0 44s-32 12-44 0l-75-75v147c0 180 62 207 126 219 40 7 100-10 134-58 42-59 34-146-23-245-6-10-5-24 2-33s19-15 31-13c7 1 30 5 44 5 68 0 124-56 124-125 0-69-57-125-125-125l-621-1c-73 11-129 80-129 157 0 77 57 143 134 154l27 3c15 3 26 16 26 31l0 34c0 112 69 204 164 218 17 3 29 19 26 36-3 17-18 29-36 26-125-19-216-137-217-280 0 0 1-7 1-7v0c-107-15-188-108-188-215 0-109 79-203 188-219h625c103 0 187 84 187 188 0 102-81 185-182 187z" horiz-adv-x="1000" />

<glyph glyph-name="uniE005" unicode="&#xe89a;" d="M538 485c0-48 39-87 87-87s87 39 87 87v0 0c0 48-39 87-87 87s-87-39-87-87v0z m275-510h62v63 125 187l-250-187-312 250-188-188v-62-125-63h63 625z m125 750h-875c-35 0-63-28-63-62v-751c0-34 28-62 63-62h875c34 0 62 28 62 62v751c0 34-28 62-62 62z m0-813h-875v751h875v-751z" horiz-adv-x="1000" />

<glyph glyph-name="uniE006" unicode="&#xe89b;" d="M938 663h-63v125c0 34-28 62-62 62h-750c-35 0-63-28-63-62v-688c0-34 28-62 63-62h62v-126c0-34 28-62 63-62h750c34 0 62 28 62 62v688c0 35-28 63-62 63z m-875-563v688h750v-688h-750z m875-188h-750v126h62v-63h63 500 62v63 62 188 312h63v-688z m-476 682c0-48 39-87 87-87s87 39 87 87-39 87-87 87-87-39-87-87z m-149-56l-188-125v-125-63-62h63 500 62v62 63 187l-250-125z" horiz-adv-x="1000" />

<glyph glyph-name="uniE007" unicode="&#xe89c;" d="M500 850c-207 0-375-168-375-375 0-121 59-235 157-305 2-1 3-2 5-3 23-14 25-57 25-65-1-1-1-3-1-4v-123c0-24 14-45 34-56l127-64c9-5 18-7 28-7 10 0 19 2 28 7l128 64c21 11 34 32 34 56v122c0 62 38 82 38 83 5 2 10 5 14 9 85 71 133 175 133 286 0 207-168 375-375 375z m-126-752c0 0 0 1 0 2h254c0-1 0-2 0-3v-59h-254v60z m126-187l-126 64h254z m202 325c0 0-42-19-63-73h-275c-8 21-21 43-45 58-80 56-131 149-131 254 0 173 139 313 312 313s313-140 313-313c0-96-44-181-111-239z m-171 489c-17 0-31-14-31-31s14-31 31-31c71 0 157-64 157-160 0-17 14-31 31-31s31 14 31 31c0 143-111 222-219 222z" horiz-adv-x="1000" />

<glyph glyph-name="uniE008" unicode="&#xe89d;" d="M938 600h-374-126-375c-35 0-63-28-63-62v-188h63v-438c0-34 28-62 62-62h313 126 311c35 0 63 28 63 62v438h62v188c0 34-28 62-62 62z m-875-62h375v-125h-375v125z m62-626v438h313v-438h-313z m750 0h-311v438h311v-438z m63 501h-374v125h374v-125z m-438 250c0 0 0 0 0 0h0c0 0 0 0 0 0h250c86 0 125 42 125 93s-39 94-125 94c-81 0-144-36-187-79-19 12-41 18-65 18-22 0-43-6-62-16-43 41-106 77-186 77-86 0-125-42-125-94s39-93 125-93h250z m313 93c0-26-34-31-63-31h-142c0 1-1 2-1 3 31 31 80 60 143 60 29 0 63-6 63-32z m-625 0c0 26 34 32 62 32 62 0 109-28 141-58-1-2-2-3-3-5h-138c-28 0-62 5-62 31z" horiz-adv-x="1000" />

<glyph glyph-name="uniE009" unicode="&#xe89e;" d="M51 294l74 60v-442c0-34 28-62 63-62h187c35 0 63 28 63 62v251h125v-251c0-34 28-62 62-62h188c34 0 62 28 62 62v442l74-60c6-4 13-6 20-6 9 0 18 4 24 11 11 14 9 33-5 44l-468 375c-12 9-28 9-39 0l-168-134v79c0 34-28 62-63 62s-62-28-62-62v-179l-176-141c-14-11-16-30-5-44s30-15 44-5z m449 360l313-250v-492h-188v313h-250v-313h-187v492z" horiz-adv-x="1000" />

<glyph glyph-name="uniE00A" unicode="&#xe89f;" d="M80 80c15-24 46-52 111-52 41 0 93 12 151 33 26-111 72-211 158-211 88 0 134 104 159 217 58-20 111-31 152-31 69 0 101 29 116 54 48 79-27 180-119 263 17 17 33 33 47 49 79 90 101 163 66 219-15 23-47 51-112 51v0c-41 0-93-12-151-33-26 111-72 211-158 211-87 0-134-104-159-217-58 20-111 31-152 31v0c-69 0-101-29-116-54-48-79 27-180 119-263-17-17-33-33-47-49-79-90-101-163-65-218z m420-168c-40 0-76 68-99 172 33 15 67 31 102 50 33-17 66-32 97-45-23-107-59-177-100-177z m-125 438c0 23 1 45 2 67 18 13 36 26 55 38 23 14 45 28 66 40 22-12 45-25 67-38 20-13 40-25 58-38 1-22 2-45 2-69 0-23-1-45-2-67-18-13-36-26-55-38-23-14-44-27-66-40-22 12-45 25-67 38-20 13-39 25-58 38-1 22-2 45-2 69z m-62-23c-9 7-18 14-27 20 9 8 18 15 27 22 0-8 0-15 0-19 0-5 0-13 0-23z m69 170c2 17 4 35 7 51 14-6 29-13 43-20-11-6-22-13-33-20-6-4-11-8-17-11z m181 33c17 8 32 16 48 23 2-18 5-36 7-55-9 5-16 10-20 12-12 7-23 13-35 20z m124-156c9-7 18-14 27-21-9-8-18-15-27-22 0 8 1 15 1 19 0 5-1 13-1 24z m-69-171c-2-17-4-35-7-51-14 6-28 13-43 20 11 6 22 13 34 20 5 4 10 8 16 11z m-216-13c12-7 23-13 35-20-17-8-32-16-48-23-2 18-5 36-7 55 9-5 16-10 20-12z m471-68c-9-16-31-24-62-24-36 0-85 11-140 31 6 43 10 85 13 120 28 21 54 42 78 63 88-80 134-153 111-190z m-64 487c29 0 49-7 59-22 23-37-21-111-107-193-27 22-54 42-77 59-3 37-7 80-14 124 55 20 104 32 139 32z m-309 179c40 0 76-68 99-172-33-15-67-31-101-50-34 17-67 32-98 45 23 107 59 177 100 177z m-373-210c9 16 31 24 62 24 36 0 85-11 140-31-6-43-10-84-13-120-28-21-53-42-78-63-88 80-134 153-111 190z m189-331c3-37 7-80 14-124-55-20-103-32-139-32-29 0-49 7-59 22-23 37 21 111 107 193 27-22 54-42 77-59z" horiz-adv-x="1000" />

<glyph glyph-name="uniE00B" unicode="&#xe8a0;" d="M750-150c35 0 63 28 63 62v876c0 34-28 62-63 62h-437c-35 0-63-28-63-62v-876c0-34 28-62 63-62h437z m-250 98c0 19 16 35 35 35s35-16 35-35-15-36-35-36-35 16-35 36z m156 840c18 0 32-14 32-32s-14-31-32-31h-62c-17 0-31 14-31 31s14 32 31 32h62z m-156-32c0-17-14-31-31-31s-31 14-31 31 14 32 31 32 31-14 31-32z m-187-93h437v-625h-437v625z" horiz-adv-x="1000" />

<glyph glyph-name="uniE012" unicode="&#xe8a1;" d="M164-145c7-3 15-5 24-5 16 0 32 6 44 18l268 269 268-269c12-12 28-18 45-18 8 0 16 2 23 5 24 9 39 32 39 57v876c0 34-28 62-62 62h-625c-35 0-63-28-63-62v-876c0-25 15-48 39-57z m336 370l-312-313v688h625v-688z m313 563v-125h-625v125h625z" horiz-adv-x="1000" />

<glyph glyph-name="uniE013" unicode="&#xe8a2;" d="M188-150h625c34 0 62 28 62 62v688c0 35-28 63-62 63h-126c-1 103-84 187-187 187s-186-84-187-187h-125c-35 0-63-28-63-63v-688c0-34 28-62 63-62z m625 750v-688h-625v688h625z m-313 188c68 0 123-56 125-125h-250c2 69 57 125 125 125z m-94-313h188c17 0 31 14 31 31s-14 32-31 32h-188c-17 0-31-14-31-32s14-31 31-31z" horiz-adv-x="1000" />

<glyph glyph-name="uniE014" unicode="&#xe8a3;" d="M938 725h-875c-35 0-63-28-63-62v-128-122-375c0-35 28-63 63-63h875c34 0 62 28 62 63v375 122 128c0 34-28 62-62 62z m0-687h-875v375h875v-375z m-875 497v128h875v-128h-875z m93-435h313c17 0 31 14 31 31s-14 32-31 32h-313c-17 0-31-14-31-32s14-31 31-31z m407 31c0-17 14-31 31-31s31 14 31 31-14 32-31 32-31-14-31-32z m125 0c0-17 14-31 31-31s31 14 31 31-14 32-31 32-31-14-31-32z m125 0c0-17 14-31 31-31s31 14 31 31-14 32-31 32-31-14-31-32z" horiz-adv-x="1000" />

<glyph glyph-name="uniE015" unicode="&#xe8a4;" d="M188-88c0-34 28-62 62-62s63 28 63 62-28 63-63 63-62-28-62-63z m562 0c0-34 28-62 63-62s62 28 62 62-28 63-62 63-63-28-63-63z m-752 782c0-17 14-31 31-31h65l39-166 55-272c0-2 1-4 1-6l-32-143c-2-10 0-19 6-27 6-7 15-11 25-11h709c17 0 31 14 31 31s-14 31-31 31h-670l14 64c3 0 6-1 9-1h570c34 0 55 6 72 46l101 312c18 56-21 79-55 79h-750c-5 0-10-2-14-3l-24 104c-4 14-16 24-31 24h-90c-17 0-31-14-31-31z m191-156h744l-100-307c-1-2-2-4-3-6-2 0-5 0-10 0h-570v6l-1 6z" horiz-adv-x="1000" />

<glyph glyph-name="uniE016" unicode="&#xe8a5;" d="M440 632c-66 66-149 72-207 14-58-58-53-141 14-207l357-358c12-12 32-12 44 0s13 32 0 44l-357 358c-32 32-53 80-14 119 39 38 87 18 119-14l397-398c114-114 143-167 75-235-69-69-142-52-251 58l-442 442c-72 72-122 188-28 282 112 111 239 2 275-35l406-406c12-12 32-12 44 0s12 32 0 45l-406 406c-123 122-262 136-363 34-102-102-91-251 28-370l441-442c38-38 118-118 211-118 42 0 86 16 129 60 124 124 10 239-74 323z" horiz-adv-x="1000" />

<glyph glyph-name="uniE017" unicode="&#xe8a6;" d="M908 787l-2 0c0 0-1 0-1 0h-393c-10 0-31-15-34-18l-460-460c-24-24-24-63 0-88l353-353c12-12 28-18 44-18s32 6 44 18l460 460c3 3 19 22 19 34v394c0 18-13 31-30 31z m-33-413c-1-2-2-3-3-4l-457-458-353 353 458 457c1 1 2 2 4 3h351v-351z m-125 257c0-17 14-31 31-31s32 14 32 31-14 32-32 32-31-14-31-32z" horiz-adv-x="1000" />

<glyph glyph-name="uniE018" unicode="&#xe8a7;" d="M909 850l-1 0h-1 0-1 0-331c-9 0-31-15-34-18l-398-398c-24-24-24-64 0-88l50-50-50-49c-24-25-24-64 0-89l291-290c12-12 28-18 44-18 16 0 32 6 44 18l398 398c3 3 18 22 18 34v519c0 17-12 31-29 31z m-33-540c0 0-1 0-1 0v0l-397-398-291 290 50 50 197-197c12-12 28-18 44-18 16 0 32 6 44 18l354 354v-99z m0 290l0-102c0 0-1-1-1-1v0 0l-397-397-291 290 396 395c1 1 2 2 4 3h289v-188z m-125 94c0-17 14-31 31-31s31 14 31 31v0c0 17-14 31-31 31s-31-14-31-31v0z" horiz-adv-x="1000" />

<glyph glyph-name="uniE019" unicode="&#xe8a8;" d="M813 788h-125c0 34-28 62-63 62h-187c-35 0-63-28-63-62h-125c-34 0-62-28-62-63h687c0 35-28 63-62 63z m-625-876c0-34 28-62 62-62h563c34 0 62 28 62 62v751h-687v-751z m62 688h563v-688h-563v688z m94-62c-17 0-31-14-31-32v-500c0-17 14-31 31-31s31 14 31 31v500c0 18-14 32-31 32z m187 0c-17 0-31-14-31-32v-500c0-17 14-31 31-31s32 14 32 31v500c0 18-14 32-32 32z m188 0c-17 0-31-14-31-32v-500c0-17 14-31 31-31s31 14 31 31v500c0 18-14 32-31 32z" horiz-adv-x="1000" />

<glyph glyph-name="uniE01A" unicode="&#xe8a9;" d="M307 839c-8 10-22 14-34 9s-21-16-21-29v-816c0-13 9-25 21-29 4-1 7-2 10-2 10 0 19 5 25 13l140 188 97-277c12-36 51-55 87-42s54 51 42 87l-96 272 219-43c13-2 26 4 33 15 7 12 5 26-3 36z m176-544c-12 2-24-2-31-12l-137-185v635l407-484z" horiz-adv-x="1000" />

<glyph glyph-name="uniE01B" unicode="&#xe8aa;" d="M438 44l0-132h-94c-17 0-31-14-31-31s14-31 31-31h155 2 155c18 0 32 14 32 31s-14 31-32 31h-93v132c130 26 250 131 250 306v94c0 17-14 31-32 31s-31-14-31-31v-94c0-164-126-250-250-250-120 0-250 78-250 250v94c0 17-14 31-31 31s-31-14-31-31v-94c0-177 117-282 250-306z m62 119c103 0 188 84 188 187v313c0 103-85 187-188 187s-187-84-187-187v-313c0-103 84-187 187-187z m-125 500c0 69 56 125 125 125s125-56 125-125v-313c0-69-56-125-125-125s-125 56-125 125v313z" horiz-adv-x="1000" />

<glyph glyph-name="uniE01C" unicode="&#xe8ab;" d="M500 850c-276 0-500-224-500-500s224-500 500-500 500 224 500 500-224 500-500 500z m0-938c-241 0-437 197-437 438s196 438 437 438 438-197 438-438-197-438-438-438z m202 683l-116-72-78-49c63-4 112-53 116-116l49 78 72 116c8 13 6 29-4 39-10 10-27 12-39 4z m-326-253l-49-78-72-116c-8-13-6-29 4-39 6-6 14-9 22-9 6 0 12 2 17 5l116 72 78 49c-63 4-112 53-116 116z m132 132c-3 0-5 1-8 1-69 0-125-56-125-125 0-3 1-5 1-8 4-63 53-112 116-116 3 0 5-1 8-1 69 0 125 56 125 125 0 3-1 5-1 8-4 63-53 112-116 116z m-70-124c0 34 28 63 62 63s63-29 63-63-29-62-63-62-62 28-62 62z" horiz-adv-x="1000" />

<glyph glyph-name="uniE01D" unicode="&#xe8ac;" d="M475 337c90 0 163 73 163 163s-73 163-163 163-162-74-162-163 73-163 162-163z m0 263c56 0 101-45 101-100s-45-101-101-101-100 45-100 101 45 100 100 100z m-22-733c5-6 10-10 15-12 0 0 0 0 0 0 3-2 7-3 10-3s6 1 10 3c0 0 0 0 0 0 5 2 10 6 15 12 0 0 291 316 320 590 2 14 3 28 3 43 0 193-157 350-351 350s-350-157-350-350c0-15 1-30 3-44 30-274 325-589 325-589z m22 921c159 0 288-130 288-288 0-11 0-22-2-37-23-209-220-456-283-531-65 76-265 321-288 532-2 14-2 25-2 36 0 158 129 288 287 288z" horiz-adv-x="1000" />

<glyph glyph-name="uniE01E" unicode="&#xe8ad;" d="M272 295c-14-15-19-36-14-56s18-36 36-43c45-19 120-31 206-33 0 0 0 0 0 0v-188c0-35 14-125 31-125s32 90 32 125v188c0 0-1 0-1 0 86 2 162 14 206 33 19 7 32 24 37 43s-1 41-14 56c-26 29-70 45-103 53v324 0c32 11 60 25 82 41 19 14 28 37 25 60s-20 42-42 50c-31 10-100 27-222 27-128 0-199-20-224-28-21-8-37-27-41-50-3-22 6-45 24-59 23-17 51-31 85-42h0v-323c-33-8-78-24-103-53z m122 435c-32 11-53 23-66 33 33 11 100 25 203 25 101 0 168-13 202-25-13-9-34-21-66-32l-42-14v-417l47-12c35-9 61-22 72-35-29-12-99-28-213-28s-184 16-212 28c11 13 37 26 71 35l48 12v416z" horiz-adv-x="1000" />

<glyph glyph-name="uniE01F" unicode="&#xe8ae;" d="M951 724l-281 125c-5 1-9 1-14 1-4 0-8 0-12-1l-301-123-267 123c-4 1-9 1-13 1-15 0-28-5-40-14-14-12-23-29-23-48v-750c0-30 20-55 49-62l280-125c4-1 9-1 13-1 5 0 9 0 13 1l301 123 268-123c4-1 9-1 14-1 14 0 27 5 39 14 14 12 23 30 23 48v751c0 29-20 54-49 61z m-576-49l250 100v-750l-250-100v750z m-312 113l250-112v-750l-250 112v750z m875-876l-250 112v750l250-111v-751z" horiz-adv-x="1000" />

<glyph glyph-name="uniE026" unicode="&#xe8af;" d="M813 850h-750c-35 0-63-28-63-62v-876c0-34 28-62 63-62h750c34 0 62 28 62 62v876c0 34-28 62-62 62z m-750-62h125v-876h-125v876z m750-876h-563v876h563v-876z m-380 603c0-53 43-95 95-95s94 42 94 95v0 0c0 52-42 94-94 94s-95-42-95-94v0z m97-133c-86 0-155-93-155-207s310-115 310 0-70 207-155 207z m408 406h62v-188h-62v188z m0-250h62v-188h-62v188z m0-250h62v-188h-62v188z" horiz-adv-x="1000" />

<glyph glyph-name="uniE027" unicode="&#xe8b0;" d="M938 225v125c0 287-221 438-438 438-212 0-437-154-437-438v-125c-35 0-63-28-63-62v-125c0-35 28-63 63-63 0-35 28-63 62-63s63 28 63 63v250c0 35-28 63-63 63v62c0 246 189 375 375 375 181 0 375-117 375-375v-62c-34 0-62-28-62-63v-250c0-35 28-63 62-63s63 28 63 63c34 0 62 28 62 63v125c0 34-28 62-62 62z" horiz-adv-x="1000" />

<glyph glyph-name="uniE028" unicode="&#xe8b1;" d="M500 850c-128 0-256-49-354-146-195-196-195-512 0-708 98-97 226-146 354-146s256 49 354 146c195 196 195 512 0 708-98 97-226 146-354 146z m-177-677c-47 47-73 110-73 177s26 130 73 177c47 47 110 73 177 73s130-26 177-73c47-47 73-110 73-177s-26-130-73-177c-47-47-110-73-177-73s-130 26-177 73z m370 569l-96-96c-32 10-64 17-97 17-30 0-59-6-88-15l-98 98c58 27 121 42 186 42 68 0 134-16 193-46z m-589-206l98-98c-18-60-17-125 2-185l-96-96c-30 59-45 125-45 193 0 65 14 128 41 186z m87-495v0 0z m131-90l98 98c26-7 53-11 80-11 30 0 59 5 88 14l98-98c-58-27-121-42-186-42-63 0-123 14-178 39z m574 213l-98 98c17 55 17 113 3 168l98 98c52-116 50-249-3-364z" horiz-adv-x="1000" />

<glyph glyph-name="uniE029" unicode="&#xe8b2;" d="M500-150c161 0 304 77 396 195l-396 305v500c-276 0-500-224-500-500s224-500 500-500z m-62 933v-433c0-19 9-38 24-49l342-265c-81-79-189-124-304-124-241 0-437 197-437 438 0 220 163 403 375 433z m148 59v-448l357-275c36 69 57 148 57 231 0 247-179 451-414 492z" horiz-adv-x="1000" />

<glyph glyph-name="uniE02A" unicode="&#xe8b3;" d="M937 850c-35 0-64-28-64-63v-148c-71 87-153 211-380 211-272 0-493-221-493-493s221-494 493-494c214 0 402 137 469 340 11 34-7 70-41 81s-70-7-81-41c-50-150-189-251-347-251-201 0-364 164-364 365s163 363 364 363c143 0 222-88 286-181h-159c-35 0-63-28-63-63 0-35 28-64 63-64h317c35 0 63 29 63 64v311c0 35-28 63-63 63z" horiz-adv-x="1000" />

<glyph glyph-name="uniE02B" unicode="&#xe8b4;" d="M299 723c36 37 96 37 132 0l335-335c17 63 2 132-47 181l-221 221c-74 73-192 73-266 0l-49-50c-74-73-74-192 0-265l221-221c49-49 118-65 180-48l-335 335c-37 37-37 96 0 133z m203-813c74-73 192-73 266 0l49 50c74 74 74 192 0 265l-221 221c-49 49-118 65-180 48l335-335c37-37 37-96 0-133l-50-49c-36-37-96-37-132 0l-335 335c-17-62-1-132 47-181z" horiz-adv-x="1000" />

<glyph glyph-name="uniE02C" unicode="&#xe8b5;" d="M236 357c40-40 98-54 152-38l-295 295c-10 10-15 24-15 41 0 27 14 62 33 81 25 25 93 53 125 22l295-296c4 15 6 30 6 45 0 41-15 79-44 107l-200 201c-60 60-180 37-239-22-34-34-55-87-55-138 0-39 13-74 36-98z m528-14c-40 40-98 54-152 38l296-295c9-10 14-24 14-41 0-27-14-62-33-81-25-25-93-53-125-22l-295 296c-4-15-6-30-6-45 0-40 16-79 44-107l200-201c60-60 180-37 239 22 34 34 55 87 55 138 0 39-13 74-36 98z m-478 221c-8-8-12-19-12-30s4-22 12-30l368-368c17-16 43-16 60 0 8 8 12 19 12 30s-4 22-12 30l-368 368c-16 16-43 16-60 0z" horiz-adv-x="1000" />

<glyph glyph-name="uniE02D" unicode="&#xe8b6;" d="M844 137c0-3 3-6 6-6s6 3 6 6v0 0c0 3-3 6-6 6s-6-3-6-6z m-125-130c0-6 5-11 11-11s11 5 11 11v0 0c0 7-5 12-11 12s-11-5-11-12v0z m-169-66c0-10 7-17 17-17s17 7 17 17v0 0c0 9-8 17-17 17s-17-8-17-17v0z m-183 9c0-13 11-23 23-23s23 10 23 23-10 22-23 22-23-10-23-22z m-161 83c0-16 12-29 28-29s28 13 28 29v0 0c0 15-12 28-28 28s-28-13-28-28v0z m-112 141c0-19 15-34 34-34s34 15 34 34v0 0c0 18-15 34-34 34s-34-16-34-34v0z m-42 173c0-22 18-40 39-40s40 18 40 40v0c0 22-18 39-40 39s-39-17-39-39v0z m34 172c0-25 21-46 46-46s45 21 45 46v0c0 25-20 45-45 45s-46-20-46-45z m104 138c0-28 23-51 51-51s51 23 51 51v0c0 29-23 51-51 51s-51-22-51-51v0z m152 80c0-31 26-57 57-57s57 26 57 57v0 0c0 31-26 56-57 56s-57-25-57-56z m171 5c0-35 28-63 63-63s62 28 62 63v0 0c0 34-28 62-62 62s-63-28-63-62v0z m157-71c0-37 30-68 68-68s68 31 68 68v0c0 38-31 68-68 68s-68-30-68-68z m111-132c0-41 33-74 74-74s73 33 73 74v0 0c0 41-33 74-73 74s-74-33-74-74z m44-171c0-44 36-80 80-80s79 36 79 80v0c0 43-35 79-79 79s-80-36-80-79z" horiz-adv-x="1000" />

<glyph glyph-name="uniE02E" unicode="&#xe8b7;" d="M500 850c-276 0-500-224-500-500s224-500 500-500 500 224 500 500-224 500-500 500z m0-125c207 0 375-168 375-375 0-81-26-156-70-217l-522 522c61 44 136 70 217 70z m-375-375c0 81 26 156 70 217l522-522v0c-61-44-136-70-217-70-207 0-375 168-375 375z" horiz-adv-x="1000" />

<glyph glyph-name="uniE02F" unicode="&#xe8b8;" d="M938 725h-875c-35 0-63-28-63-62v-125h1000v125c0 34-28 62-62 62z m0-125h-875v63h875v-63z m-875-688c0-34 28-62 62-62h750c35 0 63 28 63 62v563h-875v-563z m62 501h750v-501h-750v501z m531-63h-312c-17 0-31-14-31-31s14-31 31-31h312c18 0 32 14 32 31s-14 31-32 31z" horiz-adv-x="1000" />

<glyph glyph-name="uniE030" unicode="&#xe8b9;" d="M1000 418c-3 153-128 290-281 290-89 0-167-47-219-115-52 68-130 115-219 115-153 0-278-137-280-290h-1c0-1 0-2 0-3 0-1 0-1 0-2 0-4 1-8 1-12 14-391 495-551 495-551s488 160 503 551c0 4 1 7 1 12 0 1 0 1 0 2 0 1 0 2 0 3h0z m-64-15c-11-300-353-453-440-486-85 33-422 185-432 487 0 3-1 6-1 9 0 1 0 2 0 4 2 124 102 228 218 228 64 0 126-32 169-90 12-15 30-24 50-24s38 9 50 24c43 58 105 90 169 90 116 0 216-104 218-228 0-2 0-3 0-4 0-3-1-6-1-10z" horiz-adv-x="1000" />

<glyph glyph-name="uniE031" unicode="&#xe8ba;" d="M996 445c-7 23-27 40-50 43l-269 39-121 244c-10 22-32 35-56 35s-45-13-56-35l-120-244-270-39c-23-3-43-20-50-43-8-22-2-47 16-64l194-190-46-268c-4-23 6-47 25-61 11-8 24-12 37-12 10 0 20 2 29 7l241 127 241-127c9-5 19-7 29-7 13 0 26 4 37 12 19 14 29 38 25 61l-46 268 195 190c17 17 23 42 15 64z m-278-232l52-301-270 142-270-142 52 301-219 213 302 44 135 274 135-274 302-44z" horiz-adv-x="1000" />

<glyph glyph-name="uniE032" unicode="&#xe8bb;" d="M996 445c-7 23-27 40-50 43l-269 39-121 244c-10 22-32 35-56 35s-45-13-56-35l-120-244-270-39c-23-3-43-20-50-43-8-22-2-47 16-64l194-190-46-268c-4-23 6-47 25-61 11-8 24-12 37-12 10 0 20 2 29 7l241 127 241-127c9-5 19-7 29-7 13 0 26 4 37 12 19 14 29 38 25 61l-46 268 195 190c17 17 23 42 15 64z m-278-232l52-301-270 142v690l135-274 302-44z" horiz-adv-x="1000" />

<glyph glyph-name="uniE033" unicode="&#xe8bc;" d="M649 482l-153 311-154-311-342-49 248-242-59-341 307 161 306-161-59 341 248 242z" horiz-adv-x="1000" />

<glyph glyph-name="uniE03A" unicode="&#xe8bd;" d="M531 788c-259 0-468-210-468-469s209-469 468-469 469 210 469 469-210 469-469 469z m210-554l-188-187c-2-3-6-6-10-7-7-3-16-3-24 0-3 1-7 4-9 6-1 1-1 1-1 1l-187 187c-12 12-12 32 0 44s32 13 44 0l134-134v487c0 18 14 32 31 32s32-14 32-32v-487l134 134c12 13 32 13 44 0 12-12 12-32 0-44z" horiz-adv-x="1000" />

<glyph glyph-name="uniE03B" unicode="&#xe8be;" d="M531 788c-259 0-468-210-468-469s209-469 468-469 469 210 469 469-210 469-469 469z m344-469c0-17-14-31-31-31h-487l134-135c12-12 12-32 0-44s-32-12-44 0l-188 188c0 0 0 0 0 0-3 3-5 6-7 10-1 4-2 8-2 12v0 0c0 4 1 8 2 12 2 3 4 7 7 10 0 0 0 0 0 0l188 187c12 13 32 13 44 0s12-32 0-44l-134-134h487c17 0 31-14 31-31z" horiz-adv-x="1000" />

<glyph glyph-name="uniE03C" unicode="&#xe8bf;" d="M531 788c-259 0-468-210-468-469s209-469 468-469 469 210 469 469-210 469-469 469z m282-469v0c0-4-1-8-3-12-1-4-4-7-7-10l-187-188c-12-12-32-12-44 0s-12 32 0 44l134 135h-487c-17 0-31 14-31 31s14 31 31 31h487l-134 134c-13 12-13 32 0 44s32 13 44 0l187-187c3-3 6-6 7-10 2-4 3-8 3-12v0z" horiz-adv-x="1000" />

<glyph glyph-name="uniE03D" unicode="&#xe8c0;" d="M200 650c-183-183-183-480 0-663s480-183 663 0 183 480 0 663c-183 183-480 183-663 0z m564-564c-13-12-32-12-45 0l-344 345v-190c0-17-14-31-31-31s-31 14-31 31v265 0c0 4 0 8 2 12 1 4 4 7 6 10 1 0 1 0 1 0 0 0 0 0 0 1 3 2 6 5 10 6 4 2 8 3 12 3h265c17 0 31-14 31-32s-14-31-31-31h-190l345-344c12-13 12-32 0-45z" horiz-adv-x="1000" />

<glyph glyph-name="uniE03E" unicode="&#xe8c1;" d="M200 650c-183-183-183-480 0-663s480-183 663 0 183 480 0 663c-183 183-480 183-663 0z m550-144v-265c0-17-14-31-31-31s-31 14-31 31v190l-345-345c-12-12-32-12-44 0s-12 32 0 45l344 344h-189c-18 0-32 14-32 31s14 32 32 32h265c4 0 8-1 12-3 7-3 13-9 17-17 1-4 2-8 2-12v0z" horiz-adv-x="1000" />

<glyph glyph-name="uniE03F" unicode="&#xe8c2;" d="M200 650c-183-183-183-480 0-663s480-183 663 0 183 480 0 663c-183 183-480 183-663 0z m550-519v0c0-4-1-8-2-12-4-7-10-13-17-17-4-1-8-2-12-2h-265c-18 0-32 14-32 31s14 32 32 32h189l-344 344c-12 12-12 32 0 44s32 12 44 0l345-344v189c0 18 14 32 31 32s31-14 31-32v-265z" horiz-adv-x="1000" />

<glyph glyph-name="uniE040" unicode="&#xe8c3;" d="M200 650c-183-183-183-480 0-663s480-183 663 0 183 480 0 663c-183 183-480 183-663 0z m564-143l-345-344h190c17 0 31-14 31-32s-14-31-31-31h-265c-4 0-8 1-12 2-4 2-7 4-10 7 0 0 0 0 0 0 0 0 0 0-1 1-2 2-5 6-6 9-2 4-2 8-2 12v0 265c0 18 14 32 31 32s31-14 31-32v-189l344 344c13 12 32 12 45 0s12-32 0-44z" horiz-adv-x="1000" />

<glyph glyph-name="uniE041" unicode="&#xe8c4;" d="M938 850h-875c-35 0-63-28-63-62v-876c0-34 28-62 63-62h875c34 0 62 28 62 62v876c0 34-28 62-62 62z m-500-594v-250c0-17-14-31-32-31s-31 14-31 31v175l-197-197c-12-12-32-12-44 0s-12 32 0 44l197 197h-175c-17 0-31 14-31 31s14 32 31 32h250c4 0 8-1 12-3 8-3 14-9 17-17 2-4 3-8 3-12v0z m406 219c17 0 31-14 31-31s-14-31-31-31h-250c-4 0-8 0-12 2-4 1-7 4-10 7 0 0 0 0 0 0l-1 0c-2 3-5 6-6 10-2 4-2 8-2 12v0 250c0 17 14 31 31 31s31-14 31-31v-175l197 197c12 12 32 12 44 0s12-32 0-44l-197-197h175z" horiz-adv-x="1000" />

<glyph glyph-name="uniE042" unicode="&#xe8c5;" d="M938 850h-875c-35 0-63-28-63-62v-876c0-34 28-62 63-62h875c34 0 62 28 62 62v876c0 34-28 62-62 62z m-532-812c18 0 32-14 32-32s-14-31-32-31h-250c-4 0-8 1-12 2-3 2-7 4-10 7 0 0 0 0 0 0 0 0 0 0 0 1-3 2-5 6-7 9-1 4-2 8-2 12v0 250c0 18 14 32 31 32s32-14 32-32v-174l196 196c12 13 32 13 44 0s13-32 0-44l-196-196h174z m469 656v-250c0-17-14-31-31-31s-31 14-31 31v174l-197-196c-12-13-32-13-44 0s-12 32 0 44l196 197h-174c-17 0-31 14-31 31s14 31 31 31h250c4 0 8-1 12-2 7-4 13-10 17-17 1-4 2-8 2-12v0z" horiz-adv-x="1000" />

<glyph glyph-name="uniE043" unicode="&#xe8c6;" d="M531-150c259 0 469 210 469 469s-210 469-469 469-468-210-468-469 209-469 468-469z m-225 413l203 203c6 6 14 9 22 9s16-3 22-9l203-203c12-12 12-32 0-44s-32-12-44 0l-181 180-180-180c-13-12-32-12-45 0s-12 32 0 44z" horiz-adv-x="1000" />

<glyph glyph-name="uniE044" unicode="&#xe8c7;" d="M531 788c-259 0-468-210-468-469s209-469 468-469 469 210 469 469-210 469-469 469z m225-413l-203-203c-6-6-14-9-22-9-8 0-16 3-22 9l-203 203c-12 12-12 32 0 44s32 12 45 0l180-181 181 181c12 12 32 12 44 0s12-32 0-44z" horiz-adv-x="1000" />

<glyph glyph-name="uniE045" unicode="&#xe8c8;" d="M531 788c-259 0-468-210-468-469s209-469 468-469 469 210 469 469-210 469-469 469z m100-650c12-12 12-32 0-44s-32-12-44 0l-203 203c-6 6-9 14-9 22s3 16 9 22l203 203c12 12 32 12 44 0s12-32 0-45l-180-180z" horiz-adv-x="1000" />

<glyph glyph-name="uniE046" unicode="&#xe8c9;" d="M531 788c-259 0-468-210-468-469s209-469 468-469 469 210 469 469-210 469-469 469z m147-491l-203-203c-12-12-32-12-44 0s-12 32 0 44l181 181-181 180c-12 13-12 32 0 45s32 12 44 0l203-203c6-6 9-14 9-22 0-8-3-16-9-22z" horiz-adv-x="1000" />

<glyph glyph-name="uniE047" unicode="&#xe8ca;" d="M531 788c-259 0-468-210-468-469s209-469 468-469 469 210 469 469-210 469-469 469z m233-682c-12-12-32-12-44 0l-188 166-187-166c-12-12-32-12-44 0s-12 32 0 44l209 185c6 7 14 10 22 10 9 0 17-3 23-10l209-184c12-13 12-33 0-45z m0 224c-12-12-32-12-44 0l-188 166-187-166c-12-12-32-12-44 0s-13 32 0 45l209 185c6 6 14 9 22 9 9 0 17-3 23-9l209-185c12-13 12-33 0-45z" horiz-adv-x="1000" />

<glyph glyph-name="uniE04E" unicode="&#xe8cb;" d="M531 788c-259 0-468-210-468-469s209-469 468-469 469 210 469 469-210 469-469 469z m209-488l-242-191c-14-11-36-11-50 0l1 0c-7 5-11 12-11 19v382c0 8 4 15 10 20 0 0 0 0 0 0 14 11 36 11 50 0l241-191c0 0 0 0 1 0 13-11 13-28 0-39z" horiz-adv-x="1000" />

<glyph glyph-name="uniE04F" unicode="&#xe8cc;" d="M531 788c-259 0-468-210-468-469s209-469 468-469 469 210 469 469-210 469-469 469z m250-500h-500c-17 0-31 14-31 31s14 31 31 31h500c18 0 32-14 32-31s-14-31-32-31z" horiz-adv-x="1000" />

<glyph glyph-name="uniE050" unicode="&#xe8cd;" d="M531 788c-259 0-468-210-468-469s209-469 468-469 469 210 469 469-210 469-469 469z m250-500h-218v-219c0-17-14-31-32-31s-31 14-31 31v219h-219c-17 0-31 14-31 31s14 31 31 31h219v219c0 17 14 31 31 31s32-14 32-31v-219h218c18 0 32-14 32-31s-14-31-32-31z" horiz-adv-x="1000" />

<glyph glyph-name="uniE051" unicode="&#xe8ce;" d="M531 788c-259 0-468-210-468-469s209-469 468-469 469 210 469 469-210 469-469 469z m217-296l-174-174 154-172c13-12 13-32 0-44s-32-13-44 0l-154 171-172-171c-12-13-32-13-44 0s-12 32 0 44l174 174-154 172c-12 12-12 32 0 44s32 12 44 0l154-172 172 172c12 12 32 12 44 0s13-32 0-44z" horiz-adv-x="1000" />

<glyph glyph-name="uniE052" unicode="&#xe8cf;" d="M503 850c-276 0-500-224-500-500s224-500 500-500 500 224 500 500-224 500-500 500z m231-362l-239-366c0 0 0 0 0 0-2-2-2-4-4-6-2-2-5-3-7-5-1-1-2-1-2-1-4-3-8-5-13-6-1 0-2 0-4-1-3 0-7 0-10 0-3 0-5 1-8 1-2 1-4 2-7 3-2 1-4 1-6 3-1 1-2 2-3 3-1 0-1 1-2 1l-139 129c-18 16-19 44-3 62s44 19 62 2l101-93 211 322c13 20 40 26 61 13 20-13 26-40 12-61z" horiz-adv-x="1000" />

<glyph glyph-name="uniE053" unicode="&#xe8d0;" d="M594 850c-225 0-406-182-406-406 0-97 33-185 90-255l-265-265c-17-17-17-44 0-61s44-17 61 0l265 265c70-57 158-90 255-90 224 0 406 181 406 406s-182 406-406 406z m187-437h-375c-17 0-31 14-31 31s14 31 31 31h375c18 0 32-14 32-31s-14-31-32-31z" horiz-adv-x="1000" />

<glyph glyph-name="uniE054" unicode="&#xe8d1;" d="M594 850c-225 0-406-182-406-406 0-97 33-185 90-255l-265-265c-17-17-17-44 0-61s44-17 61 0l265 265c70-57 158-90 255-90 224 0 406 181 406 406s-182 406-406 406z m187-437h-156v-157c0-17-14-31-31-31s-31 14-31 31v157h-157c-17 0-31 14-31 31s14 31 31 31h157v156c0 18 14 32 31 32s31-14 31-32v-156h156c18 0 32-14 32-31s-14-31-32-31z" horiz-adv-x="1000" />

<glyph glyph-name="uniE055" unicode="&#xe8d2;" d="M500 850c-276 0-500-224-500-500s224-500 500-500 500 224 500 500-224 500-500 500z m188-625c0-34-28-62-63-62h-250c-34 0-62 28-62 62v250c0 35 28 63 62 63h250c35 0 63-28 63-63v-250z" horiz-adv-x="1000" />

<glyph glyph-name="uniE056" unicode="&#xe8d3;" d="M938 788h-813c-34 0-62-28-62-63v-813c0-34 28-62 62-62h813c34 0 62 28 62 62v813c0 35-28 63-62 63z m-157-688h-500c-17 0-31 14-31 31s14 32 31 32h500c18 0 32-14 32-32s-14-31-32-31z m0 188h-500c-17 0-31 14-31 31s14 31 31 31h500c18 0 32-14 32-31s-14-31-32-31z m0 187h-500c-17 0-31 14-31 31s14 32 31 32h500c18 0 32-14 32-32s-14-31-32-31z" horiz-adv-x="1000" />

<glyph glyph-name="uniE057" unicode="&#xe8d4;" d="M531 788c-259 0-468-210-468-469s209-469 468-469 469 210 469 469-210 469-469 469z m250-688h-500c-17 0-31 14-31 31s14 32 31 32h500c18 0 32-14 32-32s-14-31-32-31z m0 188h-500c-17 0-31 14-31 31s14 31 31 31h500c18 0 32-14 32-31s-14-31-32-31z m0 187h-500c-17 0-31 14-31 31s14 32 31 32h500c18 0 32-14 32-32s-14-31-32-31z" horiz-adv-x="1000" />

<glyph glyph-name="uniE058" unicode="&#xe8d5;" d="M125-150h753c34 0 62 28 62 62v876c0 34-28 62-62 62h-753c-34 0-62-28-62-62v-876c0-34 28-62 62-62z m344 813h252c18 0 32-14 32-32s-14-31-32-31h-252c-17 0-31 14-31 31s14 32 31 32z m-188-188h440c18 0 32-14 32-31s-14-31-32-31h-440c-17 0-31 14-31 31s14 31 31 31z m0-187h440c18 0 32-14 32-32s-14-31-32-31h-440c-17 0-31 14-31 31s14 32 31 32z m0-188h440c18 0 32-14 32-31s-14-31-32-31h-440c-17 0-31 14-31 31s14 31 31 31z" horiz-adv-x="1000" />

<glyph glyph-name="uniE059" unicode="&#xe8d6;" d="M125-25h63v-63c0-34 28-62 62-62h625c35 0 63 28 63 62v751c0 34-28 62-63 62h-62v63c0 34-28 62-63 62h-625c-34 0-62-28-62-62v-750c0-35 28-63 62-63z m750 688v-751h-625v63h500c35 0 63 28 63 63v625h62z m-219 62c18 0 32-14 32-31s-14-31-32-31h-252c-18 0-32 14-32 31s14 31 32 31h252z m-440-187h440c18 0 32-14 32-32s-14-31-32-31h-440c-17 0-31 14-31 31s14 32 31 32z m0-188h440c18 0 32-14 32-31s-14-31-32-31h-440c-17 0-31 14-31 31s14 31 31 31z m0-187h440c18 0 32-14 32-32s-14-31-32-31h-440c-17 0-31 14-31 31s14 32 31 32z" horiz-adv-x="1000" />

<glyph glyph-name="uniE05A" unicode="&#xe8d7;" d="M938 850h-875c-35 0-63-28-63-62v-876c0-34 28-62 63-62h875c34 0 62 28 62 62v876c0 34-28 62-62 62z m-764-287c-31 31-31 82 0 113s82 31 113 0l82-83-112-112z m470-470l-321 321 113 113 321-321 56-168z" horiz-adv-x="1000" />

<glyph glyph-name="uniE05B" unicode="&#xe8d8;" d="M938 663h-313c-34 0-62-28-62-63 0 0-9-57-63-62h-437c-35 0-63-27-63-62v-564c0-34 28-62 63-62h875c34 0 62 28 62 62v501 63 124c0 35-28 63-62 63z" horiz-adv-x="1000" />

<glyph glyph-name="uniE062" unicode="&#xe8d9;" d="M725 832c-11 11-27 18-44 18h-362c-17 0-33-7-44-18l-257-257c-11-11-18-27-18-44v-362c0-17 7-33 18-44l257-257c11-11 27-18 44-18h362c17 0 33 7 44 18l257 257c11 11 18 27 18 44v362c0 17-7 33-18 44z m-225-607c-34 0-62 28-62 63v375c0 34 28 62 62 62s63-28 63-62v-375c0-35-28-63-63-63z m63-187c0-35-28-63-63-63s-62 28-62 63 28 62 62 62 63-28 63-62z" horiz-adv-x="1000" />

</font>
</defs>
</svg>
